%TF.GenerationSoftware,KiCad,Pcbnew,(6.0.9)*%
%TF.CreationDate,2022-12-29T15:09:43-06:00*%
%TF.ProjectId,Mr_Radar_Kit,4d725f52-6164-4617-925f-4b69742e6b69,rev?*%
%TF.SameCoordinates,Original*%
%TF.FileFunction,Soldermask,Bot*%
%TF.FilePolarity,Negative*%
%FSLAX46Y46*%
G04 Gerber Fmt 4.6, Leading zero omitted, Abs format (unit mm)*
G04 Created by KiCad (PCBNEW (6.0.9)) date 2022-12-29 15:09:43*
%MOMM*%
%LPD*%
G01*
G04 APERTURE LIST*
%ADD10C,1.600000*%
%ADD11O,1.600000X1.600000*%
%ADD12R,1.600000X1.600000*%
%ADD13C,1.501140*%
%ADD14C,3.649980*%
%ADD15C,1.524000*%
%ADD16C,4.200000*%
%ADD17C,2.200000*%
G04 APERTURE END LIST*
D10*
%TO.C,R9*%
X143560800Y-70205600D03*
D11*
X143560800Y-80365600D03*
%TD*%
D10*
%TO.C,R8*%
X130505200Y-86461600D03*
D11*
X140665200Y-86461600D03*
%TD*%
D10*
%TO.C,R5*%
X130429000Y-73660000D03*
D11*
X140589000Y-73660000D03*
%TD*%
D10*
%TO.C,R2*%
X130429000Y-66548000D03*
D11*
X140589000Y-66548000D03*
%TD*%
D12*
%TO.C,SW1*%
X157056500Y-85090000D03*
D11*
X149436500Y-85090000D03*
%TD*%
D10*
%TO.C,R4*%
X130429000Y-63119000D03*
D11*
X140589000Y-63119000D03*
%TD*%
D10*
%TO.C,R6*%
X130429000Y-77216000D03*
D11*
X140589000Y-77216000D03*
%TD*%
D13*
%TO.C,J1*%
X117856000Y-73533000D03*
X119634000Y-72517000D03*
X117856000Y-71501000D03*
X119634000Y-70485000D03*
X117856000Y-69469000D03*
X119634000Y-68453000D03*
X117856000Y-67437000D03*
X119634000Y-66421000D03*
D14*
X115316000Y-76327000D03*
X115316000Y-63627000D03*
%TD*%
D10*
%TO.C,R3*%
X162814000Y-75946000D03*
D11*
X162814000Y-86106000D03*
%TD*%
D10*
%TO.C,R1*%
X130429000Y-70104000D03*
D11*
X140589000Y-70104000D03*
%TD*%
D15*
%TO.C,U1*%
X146662000Y-59643000D03*
X146662000Y-62183000D03*
X146662000Y-64723000D03*
X146662000Y-67263000D03*
X146662000Y-69803000D03*
X159362000Y-69803000D03*
X159362000Y-67263000D03*
X159362000Y-64723000D03*
X159362000Y-62183000D03*
X159362000Y-59643000D03*
%TD*%
D10*
%TO.C,R7*%
X148082000Y-80010000D03*
D11*
X158242000Y-80010000D03*
%TD*%
D16*
%TO.C,BT1*%
X139005000Y-58354000D03*
X139005000Y-81854000D03*
D17*
X162725000Y-58354000D03*
X162725000Y-71054000D03*
%TD*%
M02*
