%TF.GenerationSoftware,KiCad,Pcbnew,(6.0.7)*%
%TF.CreationDate,2022-11-01T14:03:11-05:00*%
%TF.ProjectId,Mr_Radar_Kit,4d725f52-6164-4617-925f-4b69742e6b69,rev?*%
%TF.SameCoordinates,Original*%
%TF.FileFunction,Soldermask,Bot*%
%TF.FilePolarity,Negative*%
%FSLAX46Y46*%
G04 Gerber Fmt 4.6, Leading zero omitted, Abs format (unit mm)*
G04 Created by KiCad (PCBNEW (6.0.7)) date 2022-11-01 14:03:11*
%MOMM*%
%LPD*%
G01*
G04 APERTURE LIST*
%ADD10C,1.524000*%
%ADD11C,1.600000*%
%ADD12O,1.600000X1.600000*%
%ADD13R,1.600000X1.600000*%
%ADD14C,1.501140*%
%ADD15C,3.649980*%
%ADD16C,4.200000*%
%ADD17C,2.200000*%
G04 APERTURE END LIST*
D10*
%TO.C,U1*%
X144376000Y-65485000D03*
X144376000Y-68025000D03*
X144376000Y-70565000D03*
X144376000Y-73105000D03*
X144376000Y-75645000D03*
X157076000Y-75645000D03*
X157076000Y-73105000D03*
X157076000Y-70565000D03*
X157076000Y-68025000D03*
X157076000Y-65485000D03*
%TD*%
D11*
%TO.C,R6*%
X130302000Y-75311000D03*
D12*
X140462000Y-75311000D03*
%TD*%
D11*
%TO.C,R5*%
X130302000Y-71755000D03*
D12*
X140462000Y-71755000D03*
%TD*%
D11*
%TO.C,R2*%
X130302000Y-64643000D03*
D12*
X140462000Y-64643000D03*
%TD*%
D13*
%TO.C,SW1*%
X163830000Y-54229000D03*
D12*
X156210000Y-54229000D03*
%TD*%
D11*
%TO.C,R4*%
X136398000Y-53340000D03*
D12*
X146558000Y-53340000D03*
%TD*%
D14*
%TO.C,J1*%
X117856000Y-73533000D03*
X119634000Y-72517000D03*
X117856000Y-71501000D03*
X119634000Y-70485000D03*
X117856000Y-69469000D03*
X119634000Y-68453000D03*
X117856000Y-67437000D03*
X119634000Y-66421000D03*
D15*
X115316000Y-76327000D03*
X115316000Y-63627000D03*
%TD*%
D11*
%TO.C,R3*%
X162814000Y-75946000D03*
D12*
X162814000Y-86106000D03*
%TD*%
D11*
%TO.C,R1*%
X130302000Y-68199000D03*
D12*
X140462000Y-68199000D03*
%TD*%
D11*
%TO.C,R7*%
X146177000Y-86106000D03*
D12*
X156337000Y-86106000D03*
%TD*%
D16*
%TO.C,BT1*%
X139005000Y-58354000D03*
X139005000Y-81854000D03*
D17*
X162725000Y-58354000D03*
X162725000Y-71054000D03*
%TD*%
M02*
