M48
; DRILL file {KiCad (6.0.7)} date Tue Nov  1 14:03:14 2022
; FORMAT={-:-/ absolute / inch / decimal}
; #@! TF.CreationDate,2022-11-01T14:03:14-05:00
; #@! TF.GenerationSoftware,Kicad,Pcbnew,(6.0.7)
; #@! TF.FileFunction,Plated,1,2,PTH
FMAT,2
INCH
; #@! TA.AperFunction,Plated,PTH,ComponentDrill
T1C0.0315
; #@! TA.AperFunction,Plated,PTH,ComponentDrill
T2C0.0354
; #@! TA.AperFunction,Plated,PTH,ComponentDrill
T3C0.0472
; #@! TA.AperFunction,Plated,PTH,ComponentDrill
T4C0.1280
%
G90
G05
T1
X5.13Y-2.545
X5.13Y-2.685
X5.13Y-2.825
X5.13Y-2.965
X5.37Y-2.1
X5.53Y-2.545
X5.53Y-2.685
X5.53Y-2.825
X5.53Y-2.965
X5.6841Y-2.5781
X5.6841Y-2.6781
X5.6841Y-2.7781
X5.6841Y-2.8781
X5.6841Y-2.9781
X5.755Y-3.39
X5.77Y-2.1
X6.15Y-2.135
X6.155Y-3.39
X6.1841Y-2.5781
X6.1841Y-2.6781
X6.1841Y-2.7781
X6.1841Y-2.8781
X6.1841Y-2.9781
X6.41Y-2.99
X6.41Y-3.39
X6.45Y-2.135
T2
X4.64Y-2.655
X4.64Y-2.735
X4.64Y-2.815
X4.64Y-2.895
X4.71Y-2.615
X4.71Y-2.695
X4.71Y-2.775
X4.71Y-2.855
T3
X6.4065Y-2.2974
X6.4065Y-2.7974
T4
X4.54Y-2.505
X4.54Y-3.005
T0
M30
