%TF.GenerationSoftware,KiCad,Pcbnew,(6.0.7)*%
%TF.CreationDate,2022-11-01T14:03:11-05:00*%
%TF.ProjectId,Mr_Radar_Kit,4d725f52-6164-4617-925f-4b69742e6b69,rev?*%
%TF.SameCoordinates,Original*%
%TF.FileFunction,Legend,Top*%
%TF.FilePolarity,Positive*%
%FSLAX46Y46*%
G04 Gerber Fmt 4.6, Leading zero omitted, Abs format (unit mm)*
G04 Created by KiCad (PCBNEW (6.0.7)) date 2022-11-01 14:03:11*
%MOMM*%
%LPD*%
G01*
G04 APERTURE LIST*
%ADD10C,0.150000*%
%ADD11C,0.304800*%
%ADD12C,0.203200*%
%ADD13C,0.120000*%
G04 APERTURE END LIST*
D10*
X114681428Y-86515380D02*
X114681428Y-85515380D01*
X115014761Y-86229666D01*
X115348095Y-85515380D01*
X115348095Y-86515380D01*
X115824285Y-86515380D02*
X115824285Y-85848714D01*
X115824285Y-86039190D02*
X115871904Y-85943952D01*
X115919523Y-85896333D01*
X116014761Y-85848714D01*
X116110000Y-85848714D01*
X116443333Y-86420142D02*
X116490952Y-86467761D01*
X116443333Y-86515380D01*
X116395714Y-86467761D01*
X116443333Y-86420142D01*
X116443333Y-86515380D01*
X118252857Y-86515380D02*
X117919523Y-86039190D01*
X117681428Y-86515380D02*
X117681428Y-85515380D01*
X118062380Y-85515380D01*
X118157619Y-85563000D01*
X118205238Y-85610619D01*
X118252857Y-85705857D01*
X118252857Y-85848714D01*
X118205238Y-85943952D01*
X118157619Y-85991571D01*
X118062380Y-86039190D01*
X117681428Y-86039190D01*
X119110000Y-86515380D02*
X119110000Y-85991571D01*
X119062380Y-85896333D01*
X118967142Y-85848714D01*
X118776666Y-85848714D01*
X118681428Y-85896333D01*
X119110000Y-86467761D02*
X119014761Y-86515380D01*
X118776666Y-86515380D01*
X118681428Y-86467761D01*
X118633809Y-86372523D01*
X118633809Y-86277285D01*
X118681428Y-86182047D01*
X118776666Y-86134428D01*
X119014761Y-86134428D01*
X119110000Y-86086809D01*
X120014761Y-86515380D02*
X120014761Y-85515380D01*
X120014761Y-86467761D02*
X119919523Y-86515380D01*
X119729047Y-86515380D01*
X119633809Y-86467761D01*
X119586190Y-86420142D01*
X119538571Y-86324904D01*
X119538571Y-86039190D01*
X119586190Y-85943952D01*
X119633809Y-85896333D01*
X119729047Y-85848714D01*
X119919523Y-85848714D01*
X120014761Y-85896333D01*
X120919523Y-86515380D02*
X120919523Y-85991571D01*
X120871904Y-85896333D01*
X120776666Y-85848714D01*
X120586190Y-85848714D01*
X120490952Y-85896333D01*
X120919523Y-86467761D02*
X120824285Y-86515380D01*
X120586190Y-86515380D01*
X120490952Y-86467761D01*
X120443333Y-86372523D01*
X120443333Y-86277285D01*
X120490952Y-86182047D01*
X120586190Y-86134428D01*
X120824285Y-86134428D01*
X120919523Y-86086809D01*
X121395714Y-86515380D02*
X121395714Y-85848714D01*
X121395714Y-86039190D02*
X121443333Y-85943952D01*
X121490952Y-85896333D01*
X121586190Y-85848714D01*
X121681428Y-85848714D01*
X113419523Y-88077761D02*
X113514761Y-88125380D01*
X113705238Y-88125380D01*
X113800476Y-88077761D01*
X113848095Y-87982523D01*
X113848095Y-87934904D01*
X113800476Y-87839666D01*
X113705238Y-87792047D01*
X113562380Y-87792047D01*
X113467142Y-87744428D01*
X113419523Y-87649190D01*
X113419523Y-87601571D01*
X113467142Y-87506333D01*
X113562380Y-87458714D01*
X113705238Y-87458714D01*
X113800476Y-87506333D01*
X114276666Y-88125380D02*
X114276666Y-87125380D01*
X114371904Y-87744428D02*
X114657619Y-88125380D01*
X114657619Y-87458714D02*
X114276666Y-87839666D01*
X115086190Y-88125380D02*
X115086190Y-87458714D01*
X115086190Y-87125380D02*
X115038571Y-87173000D01*
X115086190Y-87220619D01*
X115133809Y-87173000D01*
X115086190Y-87125380D01*
X115086190Y-87220619D01*
X115562380Y-87458714D02*
X115562380Y-88125380D01*
X115562380Y-87553952D02*
X115610000Y-87506333D01*
X115705238Y-87458714D01*
X115848095Y-87458714D01*
X115943333Y-87506333D01*
X115990952Y-87601571D01*
X115990952Y-88125380D01*
X116467142Y-87458714D02*
X116467142Y-88125380D01*
X116467142Y-87553952D02*
X116514761Y-87506333D01*
X116610000Y-87458714D01*
X116752857Y-87458714D01*
X116848095Y-87506333D01*
X116895714Y-87601571D01*
X116895714Y-88125380D01*
X117276666Y-87458714D02*
X117514761Y-88125380D01*
X117752857Y-87458714D02*
X117514761Y-88125380D01*
X117419523Y-88363476D01*
X117371904Y-88411095D01*
X117276666Y-88458714D01*
X118133809Y-88125380D02*
X118133809Y-87458714D01*
X118133809Y-87649190D02*
X118181428Y-87553952D01*
X118229047Y-87506333D01*
X118324285Y-87458714D01*
X118419523Y-87458714D01*
X119181428Y-88125380D02*
X119181428Y-87125380D01*
X119181428Y-88077761D02*
X119086190Y-88125380D01*
X118895714Y-88125380D01*
X118800476Y-88077761D01*
X118752857Y-88030142D01*
X118705238Y-87934904D01*
X118705238Y-87649190D01*
X118752857Y-87553952D01*
X118800476Y-87506333D01*
X118895714Y-87458714D01*
X119086190Y-87458714D01*
X119181428Y-87506333D01*
X119657619Y-88030142D02*
X119705238Y-88077761D01*
X119657619Y-88125380D01*
X119610000Y-88077761D01*
X119657619Y-88030142D01*
X119657619Y-88125380D01*
X120562380Y-88077761D02*
X120467142Y-88125380D01*
X120276666Y-88125380D01*
X120181428Y-88077761D01*
X120133809Y-88030142D01*
X120086190Y-87934904D01*
X120086190Y-87649190D01*
X120133809Y-87553952D01*
X120181428Y-87506333D01*
X120276666Y-87458714D01*
X120467142Y-87458714D01*
X120562380Y-87506333D01*
X121133809Y-88125380D02*
X121038571Y-88077761D01*
X120990952Y-88030142D01*
X120943333Y-87934904D01*
X120943333Y-87649190D01*
X120990952Y-87553952D01*
X121038571Y-87506333D01*
X121133809Y-87458714D01*
X121276666Y-87458714D01*
X121371904Y-87506333D01*
X121419523Y-87553952D01*
X121467142Y-87649190D01*
X121467142Y-87934904D01*
X121419523Y-88030142D01*
X121371904Y-88077761D01*
X121276666Y-88125380D01*
X121133809Y-88125380D01*
X121895714Y-88125380D02*
X121895714Y-87458714D01*
X121895714Y-87553952D02*
X121943333Y-87506333D01*
X122038571Y-87458714D01*
X122181428Y-87458714D01*
X122276666Y-87506333D01*
X122324285Y-87601571D01*
X122324285Y-88125380D01*
X122324285Y-87601571D02*
X122371904Y-87506333D01*
X122467142Y-87458714D01*
X122610000Y-87458714D01*
X122705238Y-87506333D01*
X122752857Y-87601571D01*
X122752857Y-88125380D01*
%TO.C,U1*%
X150614095Y-66937380D02*
X150614095Y-67746904D01*
X150661714Y-67842142D01*
X150709333Y-67889761D01*
X150804571Y-67937380D01*
X150995047Y-67937380D01*
X151090285Y-67889761D01*
X151137904Y-67842142D01*
X151185523Y-67746904D01*
X151185523Y-66937380D01*
X152185523Y-67937380D02*
X151614095Y-67937380D01*
X151899809Y-67937380D02*
X151899809Y-66937380D01*
X151804571Y-67080238D01*
X151709333Y-67175476D01*
X151614095Y-67223095D01*
X149090285Y-58270714D02*
X149090285Y-59270714D01*
X149566476Y-58794523D02*
X149614095Y-58889761D01*
X149709333Y-58937380D01*
X149090285Y-58794523D02*
X149137904Y-58889761D01*
X149233142Y-58937380D01*
X149423619Y-58937380D01*
X149518857Y-58889761D01*
X149566476Y-58794523D01*
X149566476Y-58270714D01*
X150137904Y-57937380D02*
X150137904Y-58746904D01*
X150185523Y-58842142D01*
X150233142Y-58889761D01*
X150328380Y-58937380D01*
X150518857Y-58937380D01*
X150614095Y-58889761D01*
X150661714Y-58842142D01*
X150709333Y-58746904D01*
X150709333Y-57937380D01*
X151137904Y-58889761D02*
X151280761Y-58937380D01*
X151518857Y-58937380D01*
X151614095Y-58889761D01*
X151661714Y-58842142D01*
X151709333Y-58746904D01*
X151709333Y-58651666D01*
X151661714Y-58556428D01*
X151614095Y-58508809D01*
X151518857Y-58461190D01*
X151328380Y-58413571D01*
X151233142Y-58365952D01*
X151185523Y-58318333D01*
X151137904Y-58223095D01*
X151137904Y-58127857D01*
X151185523Y-58032619D01*
X151233142Y-57985000D01*
X151328380Y-57937380D01*
X151566476Y-57937380D01*
X151709333Y-57985000D01*
X152471238Y-58413571D02*
X152614095Y-58461190D01*
X152661714Y-58508809D01*
X152709333Y-58604047D01*
X152709333Y-58746904D01*
X152661714Y-58842142D01*
X152614095Y-58889761D01*
X152518857Y-58937380D01*
X152137904Y-58937380D01*
X152137904Y-57937380D01*
X152471238Y-57937380D01*
X152566476Y-57985000D01*
X152614095Y-58032619D01*
X152661714Y-58127857D01*
X152661714Y-58223095D01*
X152614095Y-58318333D01*
X152566476Y-58365952D01*
X152471238Y-58413571D01*
X152137904Y-58413571D01*
%TO.C,R6*%
X135215333Y-75763380D02*
X134882000Y-75287190D01*
X134643904Y-75763380D02*
X134643904Y-74763380D01*
X135024857Y-74763380D01*
X135120095Y-74811000D01*
X135167714Y-74858619D01*
X135215333Y-74953857D01*
X135215333Y-75096714D01*
X135167714Y-75191952D01*
X135120095Y-75239571D01*
X135024857Y-75287190D01*
X134643904Y-75287190D01*
X136072476Y-74763380D02*
X135882000Y-74763380D01*
X135786761Y-74811000D01*
X135739142Y-74858619D01*
X135643904Y-75001476D01*
X135596285Y-75191952D01*
X135596285Y-75572904D01*
X135643904Y-75668142D01*
X135691523Y-75715761D01*
X135786761Y-75763380D01*
X135977238Y-75763380D01*
X136072476Y-75715761D01*
X136120095Y-75668142D01*
X136167714Y-75572904D01*
X136167714Y-75334809D01*
X136120095Y-75239571D01*
X136072476Y-75191952D01*
X135977238Y-75144333D01*
X135786761Y-75144333D01*
X135691523Y-75191952D01*
X135643904Y-75239571D01*
X135596285Y-75334809D01*
%TO.C,R5*%
X135215333Y-72207380D02*
X134882000Y-71731190D01*
X134643904Y-72207380D02*
X134643904Y-71207380D01*
X135024857Y-71207380D01*
X135120095Y-71255000D01*
X135167714Y-71302619D01*
X135215333Y-71397857D01*
X135215333Y-71540714D01*
X135167714Y-71635952D01*
X135120095Y-71683571D01*
X135024857Y-71731190D01*
X134643904Y-71731190D01*
X136120095Y-71207380D02*
X135643904Y-71207380D01*
X135596285Y-71683571D01*
X135643904Y-71635952D01*
X135739142Y-71588333D01*
X135977238Y-71588333D01*
X136072476Y-71635952D01*
X136120095Y-71683571D01*
X136167714Y-71778809D01*
X136167714Y-72016904D01*
X136120095Y-72112142D01*
X136072476Y-72159761D01*
X135977238Y-72207380D01*
X135739142Y-72207380D01*
X135643904Y-72159761D01*
X135596285Y-72112142D01*
%TO.C,R2*%
X135215333Y-65095380D02*
X134882000Y-64619190D01*
X134643904Y-65095380D02*
X134643904Y-64095380D01*
X135024857Y-64095380D01*
X135120095Y-64143000D01*
X135167714Y-64190619D01*
X135215333Y-64285857D01*
X135215333Y-64428714D01*
X135167714Y-64523952D01*
X135120095Y-64571571D01*
X135024857Y-64619190D01*
X134643904Y-64619190D01*
X135596285Y-64190619D02*
X135643904Y-64143000D01*
X135739142Y-64095380D01*
X135977238Y-64095380D01*
X136072476Y-64143000D01*
X136120095Y-64190619D01*
X136167714Y-64285857D01*
X136167714Y-64381095D01*
X136120095Y-64523952D01*
X135548666Y-65095380D01*
X136167714Y-65095380D01*
%TO.C,SW1*%
X158686666Y-56284761D02*
X158829523Y-56332380D01*
X159067619Y-56332380D01*
X159162857Y-56284761D01*
X159210476Y-56237142D01*
X159258095Y-56141904D01*
X159258095Y-56046666D01*
X159210476Y-55951428D01*
X159162857Y-55903809D01*
X159067619Y-55856190D01*
X158877142Y-55808571D01*
X158781904Y-55760952D01*
X158734285Y-55713333D01*
X158686666Y-55618095D01*
X158686666Y-55522857D01*
X158734285Y-55427619D01*
X158781904Y-55380000D01*
X158877142Y-55332380D01*
X159115238Y-55332380D01*
X159258095Y-55380000D01*
X159591428Y-55332380D02*
X159829523Y-56332380D01*
X160020000Y-55618095D01*
X160210476Y-56332380D01*
X160448571Y-55332380D01*
X161353333Y-56332380D02*
X160781904Y-56332380D01*
X161067619Y-56332380D02*
X161067619Y-55332380D01*
X160972380Y-55475238D01*
X160877142Y-55570476D01*
X160781904Y-55618095D01*
%TO.C,R4*%
X141311333Y-53792380D02*
X140978000Y-53316190D01*
X140739904Y-53792380D02*
X140739904Y-52792380D01*
X141120857Y-52792380D01*
X141216095Y-52840000D01*
X141263714Y-52887619D01*
X141311333Y-52982857D01*
X141311333Y-53125714D01*
X141263714Y-53220952D01*
X141216095Y-53268571D01*
X141120857Y-53316190D01*
X140739904Y-53316190D01*
X142168476Y-53125714D02*
X142168476Y-53792380D01*
X141930380Y-52744761D02*
X141692285Y-53459047D01*
X142311333Y-53459047D01*
D11*
%TO.C,J1*%
X122990428Y-63754000D02*
X124079000Y-63754000D01*
X124296714Y-63826571D01*
X124441857Y-63971714D01*
X124514428Y-64189428D01*
X124514428Y-64334571D01*
X124514428Y-62230000D02*
X124514428Y-63100857D01*
X124514428Y-62665428D02*
X122990428Y-62665428D01*
X123208142Y-62810571D01*
X123353285Y-62955714D01*
X123425857Y-63100857D01*
D12*
X115870324Y-71143827D02*
X115393772Y-71477414D01*
X115870324Y-71715690D02*
X114869564Y-71715690D01*
X114869564Y-71334448D01*
X114917220Y-71239138D01*
X114964875Y-71191482D01*
X115060185Y-71143827D01*
X115203151Y-71143827D01*
X115298461Y-71191482D01*
X115346117Y-71239138D01*
X115393772Y-71334448D01*
X115393772Y-71715690D01*
X114869564Y-70428999D02*
X115584393Y-70428999D01*
X115727359Y-70476654D01*
X115822669Y-70571964D01*
X115870324Y-70714930D01*
X115870324Y-70810240D01*
X115203151Y-69523549D02*
X115870324Y-69523549D01*
X114821909Y-69761825D02*
X115536738Y-70000101D01*
X115536738Y-69380583D01*
X114869564Y-68522789D02*
X114869564Y-68999341D01*
X115346117Y-69046997D01*
X115298461Y-68999341D01*
X115250806Y-68904031D01*
X115250806Y-68665755D01*
X115298461Y-68570444D01*
X115346117Y-68522789D01*
X115441427Y-68475134D01*
X115679703Y-68475134D01*
X115775014Y-68522789D01*
X115822669Y-68570444D01*
X115870324Y-68665755D01*
X115870324Y-68904031D01*
X115822669Y-68999341D01*
X115775014Y-69046997D01*
D10*
X122591580Y-72524619D02*
X122591580Y-71953190D01*
X123591580Y-72238904D02*
X122591580Y-72238904D01*
X123591580Y-71191285D02*
X123067771Y-71191285D01*
X122972533Y-71238904D01*
X122924914Y-71334142D01*
X122924914Y-71524619D01*
X122972533Y-71619857D01*
X123543961Y-71191285D02*
X123591580Y-71286523D01*
X123591580Y-71524619D01*
X123543961Y-71619857D01*
X123448723Y-71667476D01*
X123353485Y-71667476D01*
X123258247Y-71619857D01*
X123210628Y-71524619D01*
X123210628Y-71286523D01*
X123163009Y-71191285D01*
X123591580Y-70715095D02*
X122591580Y-70715095D01*
X122972533Y-70715095D02*
X122924914Y-70619857D01*
X122924914Y-70429380D01*
X122972533Y-70334142D01*
X123020152Y-70286523D01*
X123115390Y-70238904D01*
X123401104Y-70238904D01*
X123496342Y-70286523D01*
X123543961Y-70334142D01*
X123591580Y-70429380D01*
X123591580Y-70619857D01*
X123543961Y-70715095D01*
X122591580Y-69048428D02*
X123401104Y-69048428D01*
X123496342Y-69000809D01*
X123543961Y-68953190D01*
X123591580Y-68857952D01*
X123591580Y-68667476D01*
X123543961Y-68572238D01*
X123496342Y-68524619D01*
X123401104Y-68477000D01*
X122591580Y-68477000D01*
X122924914Y-68000809D02*
X123924914Y-68000809D01*
X122972533Y-68000809D02*
X122924914Y-67905571D01*
X122924914Y-67715095D01*
X122972533Y-67619857D01*
X123020152Y-67572238D01*
X123115390Y-67524619D01*
X123401104Y-67524619D01*
X123496342Y-67572238D01*
X123543961Y-67619857D01*
X123591580Y-67715095D01*
X123591580Y-67905571D01*
X123543961Y-68000809D01*
X122016780Y-73551609D02*
X121540590Y-73884942D01*
X122016780Y-74123038D02*
X121016780Y-74123038D01*
X121016780Y-73742085D01*
X121064400Y-73646847D01*
X121112019Y-73599228D01*
X121207257Y-73551609D01*
X121350114Y-73551609D01*
X121445352Y-73599228D01*
X121492971Y-73646847D01*
X121540590Y-73742085D01*
X121540590Y-74123038D01*
X121016780Y-72837323D02*
X121731066Y-72837323D01*
X121873923Y-72884942D01*
X121969161Y-72980180D01*
X122016780Y-73123038D01*
X122016780Y-73218276D01*
X121969161Y-72408752D02*
X122016780Y-72265895D01*
X122016780Y-72027800D01*
X121969161Y-71932561D01*
X121921542Y-71884942D01*
X121826304Y-71837323D01*
X121731066Y-71837323D01*
X121635828Y-71884942D01*
X121588209Y-71932561D01*
X121540590Y-72027800D01*
X121492971Y-72218276D01*
X121445352Y-72313514D01*
X121397733Y-72361133D01*
X121302495Y-72408752D01*
X121207257Y-72408752D01*
X121112019Y-72361133D01*
X121064400Y-72313514D01*
X121016780Y-72218276D01*
X121016780Y-71980180D01*
X121064400Y-71837323D01*
X121492971Y-71408752D02*
X121492971Y-71075419D01*
X122016780Y-70932561D02*
X122016780Y-71408752D01*
X121016780Y-71408752D01*
X121016780Y-70932561D01*
X121635828Y-70503990D02*
X121635828Y-69742085D01*
X121016780Y-68789704D02*
X121016780Y-69265895D01*
X121492971Y-69313514D01*
X121445352Y-69265895D01*
X121397733Y-69170657D01*
X121397733Y-68932561D01*
X121445352Y-68837323D01*
X121492971Y-68789704D01*
X121588209Y-68742085D01*
X121826304Y-68742085D01*
X121921542Y-68789704D01*
X121969161Y-68837323D01*
X122016780Y-68932561D01*
X122016780Y-69170657D01*
X121969161Y-69265895D01*
X121921542Y-69313514D01*
X121016780Y-68123038D02*
X121016780Y-68027800D01*
X121064400Y-67932561D01*
X121112019Y-67884942D01*
X121207257Y-67837323D01*
X121397733Y-67789704D01*
X121635828Y-67789704D01*
X121826304Y-67837323D01*
X121921542Y-67884942D01*
X121969161Y-67932561D01*
X122016780Y-68027800D01*
X122016780Y-68123038D01*
X121969161Y-68218276D01*
X121921542Y-68265895D01*
X121826304Y-68313514D01*
X121635828Y-68361133D01*
X121397733Y-68361133D01*
X121207257Y-68313514D01*
X121112019Y-68265895D01*
X121064400Y-68218276D01*
X121016780Y-68123038D01*
X121445352Y-67218276D02*
X121397733Y-67313514D01*
X121350114Y-67361133D01*
X121254876Y-67408752D01*
X121207257Y-67408752D01*
X121112019Y-67361133D01*
X121064400Y-67313514D01*
X121016780Y-67218276D01*
X121016780Y-67027800D01*
X121064400Y-66932561D01*
X121112019Y-66884942D01*
X121207257Y-66837323D01*
X121254876Y-66837323D01*
X121350114Y-66884942D01*
X121397733Y-66932561D01*
X121445352Y-67027800D01*
X121445352Y-67218276D01*
X121492971Y-67313514D01*
X121540590Y-67361133D01*
X121635828Y-67408752D01*
X121826304Y-67408752D01*
X121921542Y-67361133D01*
X121969161Y-67313514D01*
X122016780Y-67218276D01*
X122016780Y-67027800D01*
X121969161Y-66932561D01*
X121921542Y-66884942D01*
X121826304Y-66837323D01*
X121635828Y-66837323D01*
X121540590Y-66884942D01*
X121492971Y-66932561D01*
X121445352Y-67027800D01*
X121016780Y-66218276D02*
X121016780Y-66123038D01*
X121064400Y-66027800D01*
X121112019Y-65980180D01*
X121207257Y-65932561D01*
X121397733Y-65884942D01*
X121635828Y-65884942D01*
X121826304Y-65932561D01*
X121921542Y-65980180D01*
X121969161Y-66027800D01*
X122016780Y-66123038D01*
X122016780Y-66218276D01*
X121969161Y-66313514D01*
X121921542Y-66361133D01*
X121826304Y-66408752D01*
X121635828Y-66456371D01*
X121397733Y-66456371D01*
X121207257Y-66408752D01*
X121112019Y-66361133D01*
X121064400Y-66313514D01*
X121016780Y-66218276D01*
%TO.C,R3*%
X163266380Y-81319666D02*
X162790190Y-81653000D01*
X163266380Y-81891095D02*
X162266380Y-81891095D01*
X162266380Y-81510142D01*
X162314000Y-81414904D01*
X162361619Y-81367285D01*
X162456857Y-81319666D01*
X162599714Y-81319666D01*
X162694952Y-81367285D01*
X162742571Y-81414904D01*
X162790190Y-81510142D01*
X162790190Y-81891095D01*
X162266380Y-80986333D02*
X162266380Y-80367285D01*
X162647333Y-80700619D01*
X162647333Y-80557761D01*
X162694952Y-80462523D01*
X162742571Y-80414904D01*
X162837809Y-80367285D01*
X163075904Y-80367285D01*
X163171142Y-80414904D01*
X163218761Y-80462523D01*
X163266380Y-80557761D01*
X163266380Y-80843476D01*
X163218761Y-80938714D01*
X163171142Y-80986333D01*
%TO.C,R1*%
X135215333Y-68651380D02*
X134882000Y-68175190D01*
X134643904Y-68651380D02*
X134643904Y-67651380D01*
X135024857Y-67651380D01*
X135120095Y-67699000D01*
X135167714Y-67746619D01*
X135215333Y-67841857D01*
X135215333Y-67984714D01*
X135167714Y-68079952D01*
X135120095Y-68127571D01*
X135024857Y-68175190D01*
X134643904Y-68175190D01*
X136167714Y-68651380D02*
X135596285Y-68651380D01*
X135882000Y-68651380D02*
X135882000Y-67651380D01*
X135786761Y-67794238D01*
X135691523Y-67889476D01*
X135596285Y-67937095D01*
%TO.C,R7*%
X151090333Y-86558380D02*
X150757000Y-86082190D01*
X150518904Y-86558380D02*
X150518904Y-85558380D01*
X150899857Y-85558380D01*
X150995095Y-85606000D01*
X151042714Y-85653619D01*
X151090333Y-85748857D01*
X151090333Y-85891714D01*
X151042714Y-85986952D01*
X150995095Y-86034571D01*
X150899857Y-86082190D01*
X150518904Y-86082190D01*
X151423666Y-85558380D02*
X152090333Y-85558380D01*
X151661761Y-86558380D01*
D13*
%TO.C,U1*%
X147376000Y-57485000D02*
X154376000Y-57485000D01*
X154376000Y-57485000D02*
X154376000Y-60485000D01*
X154376000Y-60485000D02*
X147376000Y-60485000D01*
X147376000Y-60485000D02*
X147376000Y-57485000D01*
X143376000Y-57485000D02*
X158376000Y-57485000D01*
X158376000Y-57485000D02*
X158376000Y-83485000D01*
X158376000Y-83485000D02*
X143376000Y-83485000D01*
X143376000Y-83485000D02*
X143376000Y-57485000D01*
%TO.C,R6*%
X138652000Y-73941000D02*
X132112000Y-73941000D01*
X131342000Y-75311000D02*
X132112000Y-75311000D01*
X138652000Y-76681000D02*
X138652000Y-73941000D01*
X139422000Y-75311000D02*
X138652000Y-75311000D01*
X132112000Y-76681000D02*
X138652000Y-76681000D01*
X132112000Y-73941000D02*
X132112000Y-76681000D01*
%TO.C,R5*%
X132112000Y-73125000D02*
X138652000Y-73125000D01*
X139422000Y-71755000D02*
X138652000Y-71755000D01*
X138652000Y-70385000D02*
X132112000Y-70385000D01*
X131342000Y-71755000D02*
X132112000Y-71755000D01*
X138652000Y-73125000D02*
X138652000Y-70385000D01*
X132112000Y-70385000D02*
X132112000Y-73125000D01*
%TO.C,R2*%
X139422000Y-64643000D02*
X138652000Y-64643000D01*
X131342000Y-64643000D02*
X132112000Y-64643000D01*
X132112000Y-66013000D02*
X138652000Y-66013000D01*
X138652000Y-66013000D02*
X138652000Y-63273000D01*
X138652000Y-63273000D02*
X132112000Y-63273000D01*
X132112000Y-63273000D02*
X132112000Y-66013000D01*
%TO.C,SW1*%
X160696667Y-54864000D02*
X160696667Y-53594000D01*
X162050000Y-54024000D02*
X160696667Y-54024000D01*
X155070000Y-56649000D02*
X155070000Y-51809000D01*
X162050000Y-54264000D02*
X160696667Y-54264000D01*
X165210000Y-56889000D02*
X163826000Y-56889000D01*
X162050000Y-54384000D02*
X160696667Y-54384000D01*
X162050000Y-53664000D02*
X160696667Y-53664000D01*
X162050000Y-54744000D02*
X160696667Y-54744000D01*
X164970000Y-56649000D02*
X164970000Y-51809000D01*
X162050000Y-54504000D02*
X160696667Y-54504000D01*
X157990000Y-53594000D02*
X157990000Y-54864000D01*
X162050000Y-54864000D02*
X162050000Y-53594000D01*
X164970000Y-56649000D02*
X155070000Y-56649000D01*
X157990000Y-54864000D02*
X162050000Y-54864000D01*
X162050000Y-53784000D02*
X160696667Y-53784000D01*
X165210000Y-56889000D02*
X165210000Y-55506000D01*
X162050000Y-54144000D02*
X160696667Y-54144000D01*
X162050000Y-54624000D02*
X160696667Y-54624000D01*
X162050000Y-53594000D02*
X157990000Y-53594000D01*
X162050000Y-53904000D02*
X160696667Y-53904000D01*
X164970000Y-51809000D02*
X155070000Y-51809000D01*
%TO.C,R4*%
X144748000Y-51970000D02*
X138208000Y-51970000D01*
X144748000Y-54710000D02*
X144748000Y-51970000D01*
X138208000Y-51970000D02*
X138208000Y-54710000D01*
X138208000Y-54710000D02*
X144748000Y-54710000D01*
X137438000Y-53340000D02*
X138208000Y-53340000D01*
X145518000Y-53340000D02*
X144748000Y-53340000D01*
D10*
%TO.C,J1*%
X115316000Y-78054200D02*
X110236000Y-78054200D01*
X115316000Y-61899800D02*
X125222000Y-61899800D01*
X110236000Y-78054200D02*
X110236000Y-61899800D01*
X125222000Y-61899800D02*
X125222000Y-78054200D01*
X125222000Y-78054200D02*
X115316000Y-78054200D01*
X110236000Y-61899800D02*
X115316000Y-61899800D01*
D13*
%TO.C,R3*%
X162814000Y-85066000D02*
X162814000Y-84296000D01*
X164184000Y-84296000D02*
X164184000Y-77756000D01*
X164184000Y-77756000D02*
X161444000Y-77756000D01*
X161444000Y-77756000D02*
X161444000Y-84296000D01*
X162814000Y-76986000D02*
X162814000Y-77756000D01*
X161444000Y-84296000D02*
X164184000Y-84296000D01*
%TO.C,R1*%
X138652000Y-66829000D02*
X132112000Y-66829000D01*
X139422000Y-68199000D02*
X138652000Y-68199000D01*
X132112000Y-69569000D02*
X138652000Y-69569000D01*
X132112000Y-66829000D02*
X132112000Y-69569000D01*
X138652000Y-69569000D02*
X138652000Y-66829000D01*
X131342000Y-68199000D02*
X132112000Y-68199000D01*
%TO.C,R7*%
X147217000Y-86106000D02*
X147987000Y-86106000D01*
X147987000Y-87476000D02*
X154527000Y-87476000D01*
X147987000Y-84736000D02*
X147987000Y-87476000D01*
X154527000Y-87476000D02*
X154527000Y-84736000D01*
X154527000Y-84736000D02*
X147987000Y-84736000D01*
X155297000Y-86106000D02*
X154527000Y-86106000D01*
%TD*%
M02*
