%TF.GenerationSoftware,KiCad,Pcbnew,(6.0.9)*%
%TF.CreationDate,2022-12-29T15:09:43-06:00*%
%TF.ProjectId,Mr_Radar_Kit,4d725f52-6164-4617-925f-4b69742e6b69,rev?*%
%TF.SameCoordinates,Original*%
%TF.FileFunction,Soldermask,Top*%
%TF.FilePolarity,Negative*%
%FSLAX46Y46*%
G04 Gerber Fmt 4.6, Leading zero omitted, Abs format (unit mm)*
G04 Created by KiCad (PCBNEW (6.0.9)) date 2022-12-29 15:09:43*
%MOMM*%
%LPD*%
G01*
G04 APERTURE LIST*
%ADD10C,1.600000*%
%ADD11O,1.600000X1.600000*%
%ADD12R,1.600000X1.600000*%
%ADD13C,1.501140*%
%ADD14C,3.649980*%
%ADD15C,1.524000*%
%ADD16C,4.200000*%
%ADD17C,2.200000*%
G04 APERTURE END LIST*
%TO.C,G\u002A\u002A\u002A*%
G36*
X124039258Y-59557943D02*
G01*
X124039487Y-59459971D01*
X124039850Y-59358754D01*
X124040333Y-59256841D01*
X124040921Y-59156779D01*
X124041600Y-59061114D01*
X124042354Y-58972394D01*
X124043169Y-58893167D01*
X124043796Y-58842698D01*
X124048406Y-58503256D01*
X124274918Y-58505857D01*
X124337326Y-58506612D01*
X124387504Y-58507368D01*
X124427126Y-58508243D01*
X124457863Y-58509353D01*
X124481388Y-58510814D01*
X124499374Y-58512743D01*
X124513493Y-58515257D01*
X124525417Y-58518472D01*
X124536820Y-58522505D01*
X124541866Y-58524475D01*
X124579044Y-58544394D01*
X124617270Y-58573745D01*
X124652682Y-58608956D01*
X124681421Y-58646451D01*
X124690727Y-58662313D01*
X124698737Y-58677499D01*
X124705701Y-58691247D01*
X124711691Y-58704600D01*
X124716781Y-58718604D01*
X124721043Y-58734303D01*
X124724552Y-58752740D01*
X124727379Y-58774961D01*
X124729599Y-58802009D01*
X124731284Y-58834930D01*
X124732507Y-58874766D01*
X124733341Y-58922563D01*
X124733860Y-58979365D01*
X124734137Y-59046217D01*
X124734244Y-59124161D01*
X124734256Y-59214244D01*
X124734245Y-59284003D01*
X124734132Y-59385013D01*
X124733821Y-59477623D01*
X124733321Y-59561133D01*
X124732640Y-59634843D01*
X124731790Y-59698056D01*
X124730777Y-59750071D01*
X124729613Y-59790189D01*
X124728305Y-59817713D01*
X124727060Y-59830859D01*
X124710263Y-59896614D01*
X124682639Y-59957751D01*
X124652185Y-60002898D01*
X124614913Y-60043133D01*
X124574669Y-60073355D01*
X124526456Y-60097307D01*
X124525759Y-60097592D01*
X124514567Y-60101911D01*
X124503339Y-60105377D01*
X124490402Y-60108106D01*
X124474088Y-60110212D01*
X124452726Y-60111810D01*
X124424644Y-60113015D01*
X124388174Y-60113943D01*
X124341643Y-60114707D01*
X124283383Y-60115423D01*
X124263348Y-60115646D01*
X124039169Y-60118109D01*
X124039173Y-59881973D01*
X124275513Y-59881973D01*
X124351492Y-59879621D01*
X124386938Y-59878124D01*
X124411568Y-59875869D01*
X124428467Y-59872314D01*
X124440720Y-59866919D01*
X124446643Y-59862936D01*
X124465185Y-59846380D01*
X124480146Y-59829412D01*
X124482894Y-59825468D01*
X124485271Y-59820862D01*
X124487308Y-59814604D01*
X124489036Y-59805706D01*
X124490487Y-59793178D01*
X124491691Y-59776032D01*
X124492680Y-59753280D01*
X124493485Y-59723931D01*
X124494137Y-59686998D01*
X124494668Y-59641492D01*
X124495108Y-59586423D01*
X124495488Y-59520803D01*
X124495840Y-59443644D01*
X124496196Y-59353955D01*
X124496341Y-59315446D01*
X124496686Y-59220426D01*
X124496939Y-59138311D01*
X124497078Y-59068101D01*
X124497083Y-59008799D01*
X124496931Y-58959405D01*
X124496601Y-58918923D01*
X124496072Y-58886352D01*
X124495321Y-58860696D01*
X124494328Y-58840955D01*
X124493071Y-58826131D01*
X124491527Y-58815227D01*
X124489676Y-58807243D01*
X124487497Y-58801181D01*
X124485128Y-58796343D01*
X124470490Y-58774976D01*
X124451608Y-58759851D01*
X124425994Y-58749926D01*
X124391155Y-58744159D01*
X124354824Y-58741834D01*
X124284578Y-58739234D01*
X124280106Y-58776477D01*
X124279390Y-58789316D01*
X124278707Y-58814894D01*
X124278068Y-58852050D01*
X124277481Y-58899620D01*
X124276956Y-58956443D01*
X124276501Y-59021354D01*
X124276127Y-59093193D01*
X124275841Y-59170796D01*
X124275654Y-59253000D01*
X124275575Y-59338643D01*
X124275573Y-59347847D01*
X124275513Y-59881973D01*
X124039173Y-59881973D01*
X124039177Y-59650124D01*
X124039258Y-59557943D01*
G37*
G36*
X122317107Y-59560581D02*
G01*
X122318547Y-59517730D01*
X122320414Y-59483358D01*
X122322631Y-59460269D01*
X122335459Y-59399681D01*
X122355650Y-59350552D01*
X122383504Y-59312366D01*
X122419321Y-59284608D01*
X122427571Y-59280211D01*
X122462296Y-59262907D01*
X122434359Y-59248654D01*
X122401935Y-59225396D01*
X122375705Y-59191523D01*
X122355295Y-59146329D01*
X122340328Y-59089108D01*
X122335975Y-59063967D01*
X122333232Y-59035696D01*
X122331660Y-58996899D01*
X122331183Y-58950897D01*
X122331728Y-58901009D01*
X122333219Y-58850557D01*
X122335582Y-58802861D01*
X122338744Y-58761241D01*
X122342629Y-58729019D01*
X122343604Y-58723354D01*
X122359497Y-58670107D01*
X122385571Y-58621069D01*
X122419903Y-58578691D01*
X122460572Y-58545419D01*
X122498334Y-58526261D01*
X122512629Y-58521311D01*
X122526948Y-58517587D01*
X122543510Y-58514917D01*
X122564532Y-58513130D01*
X122592231Y-58512054D01*
X122628826Y-58511516D01*
X122676533Y-58511345D01*
X122690881Y-58511340D01*
X122843548Y-58511340D01*
X122843548Y-58761586D01*
X122724689Y-58761586D01*
X122673074Y-58761988D01*
X122633398Y-58763579D01*
X122603707Y-58766944D01*
X122582051Y-58772662D01*
X122566477Y-58781316D01*
X122555035Y-58793488D01*
X122545773Y-58809760D01*
X122543031Y-58815745D01*
X122538001Y-58828460D01*
X122534474Y-58841857D01*
X122532266Y-58858441D01*
X122531192Y-58880719D01*
X122531068Y-58911198D01*
X122531709Y-58952385D01*
X122531990Y-58965698D01*
X122533639Y-59019847D01*
X122536597Y-59061752D01*
X122541854Y-59093067D01*
X122550400Y-59115447D01*
X122563226Y-59130546D01*
X122581323Y-59140019D01*
X122605681Y-59145521D01*
X122637291Y-59148705D01*
X122641748Y-59149019D01*
X122695376Y-59152694D01*
X122699949Y-59098593D01*
X122702242Y-59066896D01*
X122703883Y-59035484D01*
X122704522Y-59011079D01*
X122704522Y-58977076D01*
X122906110Y-58977076D01*
X122906110Y-59150858D01*
X122961720Y-59150858D01*
X122961720Y-59401105D01*
X122908074Y-59401105D01*
X122903360Y-59684370D01*
X122902122Y-59770107D01*
X122901529Y-59843122D01*
X122901644Y-59904582D01*
X122902532Y-59955655D01*
X122904257Y-59997509D01*
X122906882Y-60031311D01*
X122910472Y-60058230D01*
X122915090Y-60079432D01*
X122920800Y-60096086D01*
X122926516Y-60107463D01*
X122940397Y-60130990D01*
X122732648Y-60130990D01*
X122720708Y-60112767D01*
X122713321Y-60094689D01*
X122707496Y-60067393D01*
X122704907Y-60044992D01*
X122701047Y-59995440D01*
X122688028Y-60029189D01*
X122667736Y-60068810D01*
X122640941Y-60097885D01*
X122606629Y-60116880D01*
X122563787Y-60126263D01*
X122511403Y-60126500D01*
X122483126Y-60123575D01*
X122434665Y-60110893D01*
X122393938Y-60086772D01*
X122361243Y-60051518D01*
X122336876Y-60005435D01*
X122323066Y-59958603D01*
X122320746Y-59940130D01*
X122318836Y-59909998D01*
X122317338Y-59870445D01*
X122316253Y-59823708D01*
X122315585Y-59772025D01*
X122315334Y-59717633D01*
X122315502Y-59662770D01*
X122315629Y-59651343D01*
X122523789Y-59651343D01*
X122523968Y-59706022D01*
X122524573Y-59748620D01*
X122525710Y-59780957D01*
X122527483Y-59804850D01*
X122529997Y-59822119D01*
X122533356Y-59834582D01*
X122534488Y-59837521D01*
X122550739Y-59865424D01*
X122572688Y-59881492D01*
X122602834Y-59887421D01*
X122608222Y-59887540D01*
X122630148Y-59886151D01*
X122645268Y-59879641D01*
X122660536Y-59864892D01*
X122661715Y-59863555D01*
X122676874Y-59842163D01*
X122688335Y-59818845D01*
X122690202Y-59813158D01*
X122692329Y-59798382D01*
X122694169Y-59771414D01*
X122695664Y-59733961D01*
X122696758Y-59687732D01*
X122697392Y-59634436D01*
X122697532Y-59594003D01*
X122697571Y-59401105D01*
X122643507Y-59401105D01*
X122608763Y-59402436D01*
X122584218Y-59407722D01*
X122566316Y-59418902D01*
X122551501Y-59437914D01*
X122541039Y-59456968D01*
X122535523Y-59468289D01*
X122531329Y-59478993D01*
X122528275Y-59491120D01*
X122526182Y-59506708D01*
X122524868Y-59527797D01*
X122524151Y-59556425D01*
X122523852Y-59594633D01*
X122523789Y-59644458D01*
X122523789Y-59651343D01*
X122315629Y-59651343D01*
X122316093Y-59609673D01*
X122317107Y-59560581D01*
G37*
G36*
X127681643Y-58740732D02*
G01*
X127341030Y-58740732D01*
X127341030Y-59157810D01*
X127612130Y-59157810D01*
X127612130Y-59380251D01*
X127341030Y-59380251D01*
X127341030Y-59880743D01*
X127681643Y-59880743D01*
X127681643Y-60117087D01*
X127118589Y-60117087D01*
X127118589Y-58511340D01*
X127681643Y-58511340D01*
X127681643Y-58740732D01*
G37*
G36*
X121392125Y-52190574D02*
G01*
X121491469Y-52206480D01*
X121583361Y-52233339D01*
X121668834Y-52271562D01*
X121748922Y-52321559D01*
X121824659Y-52383742D01*
X121852990Y-52411132D01*
X121925887Y-52493869D01*
X121989571Y-52585885D01*
X122044169Y-52687483D01*
X122089810Y-52798965D01*
X122126623Y-52920635D01*
X122154736Y-53052796D01*
X122170172Y-53158850D01*
X122171690Y-53178206D01*
X122173049Y-53208528D01*
X122174245Y-53248202D01*
X122175275Y-53295613D01*
X122176132Y-53349148D01*
X122176812Y-53407190D01*
X122177311Y-53468128D01*
X122177624Y-53530345D01*
X122177747Y-53592228D01*
X122177674Y-53652162D01*
X122177401Y-53708533D01*
X122176923Y-53759727D01*
X122176236Y-53804129D01*
X122175334Y-53840125D01*
X122174215Y-53866100D01*
X122172871Y-53880441D01*
X122172265Y-53882567D01*
X122164703Y-53883887D01*
X122144624Y-53885105D01*
X122113411Y-53886193D01*
X122072451Y-53887124D01*
X122023128Y-53887869D01*
X121966827Y-53888400D01*
X121904932Y-53888689D01*
X121867601Y-53888735D01*
X121566749Y-53888735D01*
X121562155Y-53689492D01*
X121560920Y-53632756D01*
X121559811Y-53575661D01*
X121558874Y-53521110D01*
X121558155Y-53472003D01*
X121557702Y-53431241D01*
X121557560Y-53403755D01*
X121556118Y-53348206D01*
X121551907Y-53302626D01*
X121546618Y-53274549D01*
X121524849Y-53215528D01*
X121492719Y-53164254D01*
X121451859Y-53121524D01*
X121403897Y-53088135D01*
X121350464Y-53064885D01*
X121293190Y-53052571D01*
X121233705Y-53051991D01*
X121173638Y-53063943D01*
X121141037Y-53076106D01*
X121092450Y-53104876D01*
X121051242Y-53144660D01*
X121018490Y-53194078D01*
X120995269Y-53251752D01*
X120990743Y-53268685D01*
X120987197Y-53284918D01*
X120984490Y-53301698D01*
X120982563Y-53320905D01*
X120981356Y-53344419D01*
X120980810Y-53374119D01*
X120980868Y-53411886D01*
X120981470Y-53459600D01*
X120982557Y-53519140D01*
X120982691Y-53525883D01*
X120984681Y-53605264D01*
X120987354Y-53672994D01*
X120990932Y-53731317D01*
X120995640Y-53782477D01*
X121001700Y-53828717D01*
X121009336Y-53872281D01*
X121018772Y-53915413D01*
X121023320Y-53933918D01*
X121037765Y-53984859D01*
X121056024Y-54037786D01*
X121078576Y-54093561D01*
X121105901Y-54153044D01*
X121138478Y-54217099D01*
X121176786Y-54286586D01*
X121221306Y-54362368D01*
X121272515Y-54445306D01*
X121330893Y-54536261D01*
X121396921Y-54636097D01*
X121471076Y-54745674D01*
X121491169Y-54775024D01*
X121546879Y-54856348D01*
X121595374Y-54927417D01*
X121637410Y-54989367D01*
X121673742Y-55043333D01*
X121705127Y-55090450D01*
X121732319Y-55131854D01*
X121756076Y-55168680D01*
X121777152Y-55202065D01*
X121796303Y-55233144D01*
X121798818Y-55237284D01*
X121883125Y-55382097D01*
X121956377Y-55520866D01*
X122019075Y-55655277D01*
X122071718Y-55787020D01*
X122114807Y-55917781D01*
X122148842Y-56049249D01*
X122174323Y-56183111D01*
X122191748Y-56321054D01*
X122201620Y-56464768D01*
X122204457Y-56606688D01*
X122202999Y-56709044D01*
X122198614Y-56801102D01*
X122190958Y-56886221D01*
X122179691Y-56967761D01*
X122164471Y-57049084D01*
X122155244Y-57090838D01*
X122124832Y-57205814D01*
X122089044Y-57309451D01*
X122046902Y-57403596D01*
X121997428Y-57490097D01*
X121939643Y-57570803D01*
X121872571Y-57647562D01*
X121846849Y-57673710D01*
X121778715Y-57737189D01*
X121713737Y-57789213D01*
X121649607Y-57831110D01*
X121584015Y-57864207D01*
X121514653Y-57889832D01*
X121439210Y-57909313D01*
X121435913Y-57910008D01*
X121404105Y-57915154D01*
X121363931Y-57919466D01*
X121319570Y-57922716D01*
X121275203Y-57924676D01*
X121235013Y-57925118D01*
X121203178Y-57923814D01*
X121196093Y-57923076D01*
X121095122Y-57904404D01*
X120998296Y-57874810D01*
X120908725Y-57835266D01*
X120899471Y-57830362D01*
X120820018Y-57780210D01*
X120743741Y-57717771D01*
X120671684Y-57644500D01*
X120604889Y-57561848D01*
X120544400Y-57471267D01*
X120491259Y-57374210D01*
X120446509Y-57272130D01*
X120411193Y-57166478D01*
X120404214Y-57140662D01*
X120394870Y-57103736D01*
X120386942Y-57070220D01*
X120380300Y-57038553D01*
X120374814Y-57007171D01*
X120370353Y-56974513D01*
X120366789Y-56939016D01*
X120363991Y-56899119D01*
X120361829Y-56853259D01*
X120360174Y-56799874D01*
X120358895Y-56737401D01*
X120357863Y-56664279D01*
X120356947Y-56578945D01*
X120356873Y-56571331D01*
X120353533Y-56226641D01*
X120568012Y-56222041D01*
X120627024Y-56220845D01*
X120686650Y-56219764D01*
X120744062Y-56218840D01*
X120796427Y-56218115D01*
X120840914Y-56217631D01*
X120874693Y-56217431D01*
X120878072Y-56217428D01*
X120973652Y-56217416D01*
X120973652Y-56345350D01*
X120974328Y-56400472D01*
X120976234Y-56459878D01*
X120979190Y-56521099D01*
X120983013Y-56581664D01*
X120987523Y-56639105D01*
X120992537Y-56690952D01*
X120997876Y-56734735D01*
X121003357Y-56767984D01*
X121005353Y-56776994D01*
X121027724Y-56843011D01*
X121059896Y-56900563D01*
X121100972Y-56948747D01*
X121150060Y-56986659D01*
X121206264Y-57013394D01*
X121250931Y-57025270D01*
X121305399Y-57028612D01*
X121358664Y-57019034D01*
X121408839Y-56997500D01*
X121454034Y-56964976D01*
X121492359Y-56922426D01*
X121511454Y-56892153D01*
X121529178Y-56850506D01*
X121543908Y-56797480D01*
X121555482Y-56735307D01*
X121563736Y-56666221D01*
X121568505Y-56592453D01*
X121569626Y-56516237D01*
X121566934Y-56439805D01*
X121560267Y-56365390D01*
X121553567Y-56318209D01*
X121544086Y-56270006D01*
X121530988Y-56215931D01*
X121515468Y-56160084D01*
X121498721Y-56106567D01*
X121481940Y-56059479D01*
X121469541Y-56029731D01*
X121440942Y-55971522D01*
X121404012Y-55903330D01*
X121359237Y-55825926D01*
X121307100Y-55740079D01*
X121248086Y-55646557D01*
X121182679Y-55546130D01*
X121111364Y-55439567D01*
X121034625Y-55327638D01*
X120964085Y-55226857D01*
X120879983Y-55106535D01*
X120804619Y-54995974D01*
X120737578Y-54894471D01*
X120678447Y-54801321D01*
X120626813Y-54715819D01*
X120582261Y-54637260D01*
X120544378Y-54564940D01*
X120512752Y-54498155D01*
X120486967Y-54436199D01*
X120467179Y-54380149D01*
X120455200Y-54339075D01*
X120441965Y-54287562D01*
X120428198Y-54228934D01*
X120414628Y-54166511D01*
X120401978Y-54103617D01*
X120390975Y-54043573D01*
X120383344Y-53996480D01*
X120376913Y-53944264D01*
X120371368Y-53881006D01*
X120366747Y-53809050D01*
X120363086Y-53730743D01*
X120360421Y-53648428D01*
X120358788Y-53564452D01*
X120358226Y-53481159D01*
X120358769Y-53400894D01*
X120360455Y-53326003D01*
X120363320Y-53258831D01*
X120367400Y-53201723D01*
X120370512Y-53172752D01*
X120389031Y-53056838D01*
X120414563Y-52944210D01*
X120446445Y-52836786D01*
X120484012Y-52736483D01*
X120526600Y-52645215D01*
X120573547Y-52564902D01*
X120588711Y-52542766D01*
X120658348Y-52454606D01*
X120732555Y-52379465D01*
X120811910Y-52317048D01*
X120896990Y-52267058D01*
X120988371Y-52229200D01*
X121086629Y-52203175D01*
X121192340Y-52188689D01*
X121284295Y-52185211D01*
X121392125Y-52190574D01*
G37*
G36*
X126263581Y-57864870D02*
G01*
X125672722Y-57864870D01*
X125672722Y-52262134D01*
X126263581Y-52262134D01*
X126263581Y-57864870D01*
G37*
G36*
X131048410Y-58504656D02*
G01*
X131083756Y-58505399D01*
X131111702Y-58506531D01*
X131130077Y-58507963D01*
X131136713Y-58509602D01*
X131137808Y-58517127D01*
X131140896Y-58537341D01*
X131145815Y-58569201D01*
X131152401Y-58611661D01*
X131160493Y-58663678D01*
X131169926Y-58724206D01*
X131180539Y-58792201D01*
X131192168Y-58866619D01*
X131204652Y-58946414D01*
X131217827Y-59030543D01*
X131222520Y-59060492D01*
X131240061Y-59171802D01*
X131255748Y-59270089D01*
X131269565Y-59355262D01*
X131281497Y-59427233D01*
X131291529Y-59485909D01*
X131299645Y-59531200D01*
X131305830Y-59563017D01*
X131310067Y-59581269D01*
X131312343Y-59585864D01*
X131312526Y-59585314D01*
X131314326Y-59575221D01*
X131318139Y-59552512D01*
X131323784Y-59518297D01*
X131331082Y-59473689D01*
X131339852Y-59419797D01*
X131349912Y-59357735D01*
X131361084Y-59288612D01*
X131373186Y-59213542D01*
X131386038Y-59133635D01*
X131399459Y-59050002D01*
X131400563Y-59043113D01*
X131413972Y-58959597D01*
X131426798Y-58879992D01*
X131438865Y-58805375D01*
X131449996Y-58736826D01*
X131460015Y-58675421D01*
X131468745Y-58622240D01*
X131476010Y-58578360D01*
X131481633Y-58544859D01*
X131485438Y-58522815D01*
X131487249Y-58513308D01*
X131487317Y-58513078D01*
X131492295Y-58509766D01*
X131505375Y-58507336D01*
X131527948Y-58505694D01*
X131561405Y-58504745D01*
X131607138Y-58504395D01*
X131615853Y-58504389D01*
X131741194Y-58504389D01*
X131741194Y-60117440D01*
X131631712Y-60115526D01*
X131522229Y-60113611D01*
X131518753Y-59621896D01*
X131515278Y-59130181D01*
X131453658Y-59604518D01*
X131443235Y-59684636D01*
X131433263Y-59761056D01*
X131423897Y-59832602D01*
X131415293Y-59898101D01*
X131407606Y-59956380D01*
X131400990Y-60006265D01*
X131395602Y-60046580D01*
X131391595Y-60076154D01*
X131389125Y-60093811D01*
X131388448Y-60098178D01*
X131384858Y-60117500D01*
X131300615Y-60115556D01*
X131216372Y-60113611D01*
X131159811Y-59613119D01*
X131103250Y-59112626D01*
X131102463Y-59614857D01*
X131101676Y-60117087D01*
X130995090Y-60117087D01*
X130957922Y-60116799D01*
X130925779Y-60116006D01*
X130901179Y-60114812D01*
X130886635Y-60113323D01*
X130883869Y-60112453D01*
X130883266Y-60105034D01*
X130882685Y-60084586D01*
X130882133Y-60051982D01*
X130881613Y-60008095D01*
X130881131Y-59953798D01*
X130880693Y-59889965D01*
X130880302Y-59817470D01*
X130879964Y-59737184D01*
X130879684Y-59649982D01*
X130879468Y-59556737D01*
X130879319Y-59458322D01*
X130879244Y-59355611D01*
X130879235Y-59306104D01*
X130879235Y-58504389D01*
X131007834Y-58504389D01*
X131048410Y-58504656D01*
G37*
G36*
X128183874Y-58505945D02*
G01*
X128289881Y-58507864D01*
X128291653Y-59194304D01*
X128293424Y-59880743D01*
X128620067Y-59880743D01*
X128620067Y-60117087D01*
X128077867Y-60117087D01*
X128077867Y-58504027D01*
X128183874Y-58505945D01*
G37*
G36*
X120711241Y-58505945D02*
G01*
X120817248Y-58507864D01*
X120819055Y-58832837D01*
X120820861Y-59157810D01*
X121029262Y-59157810D01*
X121029262Y-58504389D01*
X121237801Y-58504389D01*
X121237801Y-60117087D01*
X121029262Y-60117087D01*
X121029262Y-59373299D01*
X120820724Y-59373299D01*
X120820724Y-60110136D01*
X120605234Y-60110136D01*
X120605234Y-58504027D01*
X120711241Y-58505945D01*
G37*
G36*
X125707478Y-58740732D02*
G01*
X125366865Y-58740732D01*
X125366865Y-59157810D01*
X125637965Y-59157810D01*
X125637965Y-59380251D01*
X125366865Y-59380251D01*
X125366865Y-59880743D01*
X125707478Y-59880743D01*
X125707478Y-60117087D01*
X125144424Y-60117087D01*
X125144424Y-58504389D01*
X125707478Y-58504389D01*
X125707478Y-58740732D01*
G37*
G36*
X116065792Y-58461577D02*
G01*
X116127371Y-58478950D01*
X116181440Y-58507596D01*
X116227379Y-58547156D01*
X116264568Y-58597276D01*
X116274592Y-58615629D01*
X116290470Y-58651542D01*
X116302058Y-58689135D01*
X116309861Y-58731281D01*
X116314378Y-58780855D01*
X116316113Y-58840730D01*
X116316170Y-58853691D01*
X116316290Y-58956222D01*
X116100800Y-58956222D01*
X116100800Y-58870961D01*
X116100405Y-58832185D01*
X116098991Y-58804346D01*
X116096214Y-58784493D01*
X116091730Y-58769675D01*
X116088099Y-58762015D01*
X116066820Y-58735278D01*
X116037306Y-58719436D01*
X115999149Y-58714298D01*
X115987508Y-58714709D01*
X115962152Y-58717553D01*
X115944824Y-58723554D01*
X115929672Y-58735042D01*
X115924946Y-58739636D01*
X115902689Y-58761933D01*
X115903186Y-58853864D01*
X115903841Y-58889960D01*
X115905917Y-58921546D01*
X115910210Y-58950228D01*
X115917519Y-58977614D01*
X115928640Y-59005309D01*
X115944371Y-59034920D01*
X115965509Y-59068053D01*
X115992850Y-59106315D01*
X116027194Y-59151313D01*
X116069335Y-59204652D01*
X116090249Y-59230798D01*
X116141235Y-59295694D01*
X116183397Y-59352367D01*
X116217761Y-59402401D01*
X116245356Y-59447383D01*
X116267209Y-59488899D01*
X116284346Y-59528533D01*
X116285987Y-59532844D01*
X116303341Y-59584288D01*
X116314726Y-59632240D01*
X116320821Y-59681377D01*
X116322302Y-59736373D01*
X116321189Y-59775731D01*
X116315906Y-59842316D01*
X116305731Y-59898113D01*
X116289634Y-59945687D01*
X116266585Y-59987605D01*
X116235557Y-60026433D01*
X116210734Y-60051126D01*
X116174943Y-60081701D01*
X116141865Y-60103240D01*
X116107573Y-60117272D01*
X116068142Y-60125330D01*
X116019644Y-60128943D01*
X116010434Y-60129220D01*
X115971018Y-60129676D01*
X115941691Y-60128485D01*
X115918698Y-60125298D01*
X115898284Y-60119764D01*
X115894346Y-60118404D01*
X115841172Y-60092433D01*
X115792751Y-60054991D01*
X115750901Y-60008200D01*
X115717441Y-59954178D01*
X115694191Y-59895045D01*
X115690431Y-59880743D01*
X115686863Y-59858530D01*
X115683900Y-59826107D01*
X115681796Y-59787166D01*
X115680809Y-59745396D01*
X115680784Y-59741718D01*
X115680248Y-59640924D01*
X115789730Y-59639010D01*
X115899213Y-59637095D01*
X115899383Y-59698096D01*
X115901364Y-59750295D01*
X115907463Y-59790799D01*
X115918406Y-59821395D01*
X115934916Y-59843871D01*
X115957719Y-59860013D01*
X115966765Y-59864261D01*
X116000968Y-59872396D01*
X116033837Y-59868647D01*
X116062441Y-59854113D01*
X116083848Y-59829890D01*
X116089496Y-59818347D01*
X116097077Y-59788418D01*
X116100588Y-59749891D01*
X116100071Y-59707448D01*
X116095568Y-59665772D01*
X116087798Y-59631668D01*
X116081838Y-59614154D01*
X116074589Y-59596749D01*
X116065248Y-59578317D01*
X116053006Y-59557722D01*
X116037059Y-59533828D01*
X116016600Y-59505498D01*
X115990822Y-59471598D01*
X115958920Y-59430989D01*
X115920087Y-59382537D01*
X115873517Y-59325105D01*
X115848365Y-59294243D01*
X115799022Y-59230479D01*
X115760091Y-59172381D01*
X115730467Y-59117822D01*
X115709048Y-59064676D01*
X115694732Y-59010815D01*
X115691126Y-58990979D01*
X115687160Y-58956552D01*
X115684705Y-58914259D01*
X115683720Y-58867623D01*
X115684163Y-58820169D01*
X115685993Y-58775422D01*
X115689169Y-58736907D01*
X115693649Y-58708147D01*
X115694486Y-58704681D01*
X115717991Y-58637123D01*
X115750614Y-58579473D01*
X115791756Y-58532224D01*
X115840819Y-58495867D01*
X115897203Y-58470893D01*
X115960311Y-58457795D01*
X115997320Y-58455832D01*
X116065792Y-58461577D01*
G37*
G36*
X132651813Y-58740732D02*
G01*
X132311200Y-58740732D01*
X132311200Y-59157810D01*
X132582300Y-59157810D01*
X132582300Y-59380251D01*
X132311200Y-59380251D01*
X132311200Y-59880743D01*
X132651813Y-59880743D01*
X132651813Y-60117087D01*
X132088759Y-60117087D01*
X132088759Y-58504389D01*
X132651813Y-58504389D01*
X132651813Y-58740732D01*
G37*
G36*
X126702847Y-58504454D02*
G01*
X126730215Y-58504869D01*
X126747910Y-58505963D01*
X126758044Y-58508065D01*
X126762733Y-58511505D01*
X126764090Y-58516610D01*
X126764181Y-58520029D01*
X126763348Y-58528858D01*
X126760894Y-58550596D01*
X126756925Y-58584357D01*
X126751552Y-58629258D01*
X126744881Y-58684411D01*
X126737022Y-58748932D01*
X126728082Y-58821936D01*
X126718170Y-58902538D01*
X126707394Y-58989851D01*
X126695862Y-59082990D01*
X126683682Y-59181072D01*
X126670963Y-59283209D01*
X126665577Y-59326378D01*
X126566866Y-60117087D01*
X126271162Y-60117087D01*
X126267323Y-60094495D01*
X126265248Y-60080224D01*
X126261766Y-60053774D01*
X126257002Y-60016202D01*
X126251082Y-59968563D01*
X126244129Y-59911913D01*
X126236269Y-59847309D01*
X126227625Y-59775806D01*
X126218324Y-59698459D01*
X126208488Y-59616326D01*
X126198244Y-59530462D01*
X126187716Y-59441923D01*
X126177028Y-59351764D01*
X126166306Y-59261042D01*
X126155673Y-59170813D01*
X126145255Y-59082132D01*
X126135176Y-58996056D01*
X126125561Y-58913641D01*
X126116535Y-58835941D01*
X126108222Y-58764014D01*
X126100747Y-58698915D01*
X126094235Y-58641700D01*
X126088810Y-58593426D01*
X126084598Y-58555147D01*
X126081722Y-58527920D01*
X126080307Y-58512801D01*
X126080214Y-58509977D01*
X126088007Y-58508048D01*
X126107226Y-58506407D01*
X126135393Y-58505180D01*
X126170031Y-58504492D01*
X126190534Y-58504389D01*
X126231547Y-58504530D01*
X126260734Y-58505106D01*
X126280169Y-58506347D01*
X126291928Y-58508480D01*
X126298086Y-58511736D01*
X126300718Y-58516342D01*
X126300778Y-58516553D01*
X126302053Y-58525260D01*
X126304699Y-58546700D01*
X126308593Y-58579785D01*
X126313612Y-58623426D01*
X126319635Y-58676535D01*
X126326537Y-58738023D01*
X126334197Y-58806802D01*
X126342491Y-58881782D01*
X126351297Y-58961876D01*
X126360493Y-59045995D01*
X126361934Y-59059220D01*
X126371150Y-59143126D01*
X126380034Y-59222626D01*
X126388461Y-59296696D01*
X126396308Y-59364313D01*
X126403452Y-59424454D01*
X126409769Y-59476097D01*
X126415135Y-59518218D01*
X126419427Y-59549795D01*
X126422521Y-59569803D01*
X126424294Y-59577220D01*
X126424484Y-59577091D01*
X126426069Y-59568309D01*
X126429172Y-59546818D01*
X126433654Y-59513711D01*
X126439375Y-59470082D01*
X126446197Y-59417027D01*
X126453979Y-59355637D01*
X126462582Y-59287009D01*
X126471866Y-59212234D01*
X126481692Y-59132408D01*
X126491921Y-59048625D01*
X126493002Y-59039730D01*
X126503229Y-58955821D01*
X126513034Y-58875921D01*
X126522280Y-58801103D01*
X126530832Y-58732441D01*
X126538553Y-58671010D01*
X126545308Y-58617883D01*
X126550961Y-58574134D01*
X126555377Y-58540837D01*
X126558419Y-58519067D01*
X126559952Y-58509897D01*
X126560028Y-58509694D01*
X126567782Y-58507808D01*
X126586882Y-58506218D01*
X126614770Y-58505054D01*
X126648890Y-58504446D01*
X126663690Y-58504389D01*
X126702847Y-58504454D01*
G37*
G36*
X128934350Y-58950127D02*
G01*
X128934848Y-58887050D01*
X128935580Y-58835770D01*
X128936552Y-58795866D01*
X128937767Y-58766917D01*
X128939228Y-58748504D01*
X128940058Y-58743089D01*
X128952697Y-58701446D01*
X128972820Y-58656793D01*
X128997655Y-58614345D01*
X129024431Y-58579319D01*
X129030522Y-58572910D01*
X129074278Y-58536761D01*
X129123147Y-58511474D01*
X129178944Y-58496377D01*
X129243485Y-58490800D01*
X129252634Y-58490739D01*
X129301705Y-58492545D01*
X129342388Y-58498496D01*
X129379847Y-58509634D01*
X129409915Y-58522483D01*
X129455684Y-58551511D01*
X129495939Y-58591783D01*
X129529122Y-58641216D01*
X129553674Y-58697726D01*
X129561579Y-58725268D01*
X129563747Y-58741173D01*
X129565788Y-58769621D01*
X129567691Y-58809254D01*
X129569449Y-58858712D01*
X129571051Y-58916635D01*
X129572489Y-58981667D01*
X129573754Y-59052446D01*
X129574835Y-59127615D01*
X129575725Y-59205814D01*
X129576414Y-59285685D01*
X129576893Y-59365868D01*
X129577153Y-59445005D01*
X129577184Y-59521737D01*
X129576977Y-59594704D01*
X129576524Y-59662548D01*
X129575815Y-59723910D01*
X129574841Y-59777430D01*
X129573593Y-59821750D01*
X129572062Y-59855512D01*
X129570238Y-59877355D01*
X129569373Y-59882692D01*
X129549159Y-59943811D01*
X129516943Y-59999744D01*
X129474232Y-60048584D01*
X129422534Y-60088423D01*
X129394410Y-60104064D01*
X129372702Y-60114324D01*
X129354638Y-60121144D01*
X129336233Y-60125307D01*
X129313502Y-60127595D01*
X129282461Y-60128791D01*
X129266691Y-60129141D01*
X129219137Y-60128955D01*
X129182460Y-60126329D01*
X129158792Y-60121597D01*
X129097313Y-60094306D01*
X129043997Y-60055966D01*
X128999479Y-60007220D01*
X128964396Y-59948707D01*
X128948207Y-59909372D01*
X128946117Y-59902197D01*
X128944285Y-59892738D01*
X128942687Y-59880056D01*
X128941302Y-59863215D01*
X128940109Y-59841275D01*
X128939085Y-59813299D01*
X128938208Y-59778349D01*
X128937456Y-59735486D01*
X128936807Y-59683774D01*
X128936240Y-59622273D01*
X128935733Y-59550046D01*
X128935263Y-59466154D01*
X128934809Y-59369660D01*
X128934633Y-59328823D01*
X128934229Y-59214349D01*
X128934045Y-59113356D01*
X128934063Y-59072999D01*
X129149207Y-59072999D01*
X129149313Y-59148919D01*
X129149599Y-59237047D01*
X129149891Y-59310738D01*
X129150279Y-59403652D01*
X129150649Y-59483701D01*
X129151037Y-59551920D01*
X129151476Y-59609348D01*
X129152001Y-59657021D01*
X129152646Y-59695975D01*
X129153447Y-59727248D01*
X129154437Y-59751876D01*
X129155652Y-59770897D01*
X129157125Y-59785346D01*
X129158891Y-59796262D01*
X129160986Y-59804680D01*
X129163442Y-59811638D01*
X129166295Y-59818172D01*
X129166827Y-59819325D01*
X129182894Y-59846064D01*
X129203581Y-59862882D01*
X129233027Y-59872933D01*
X129238731Y-59874106D01*
X129276908Y-59875641D01*
X129310100Y-59864392D01*
X129313313Y-59862473D01*
X129327308Y-59849679D01*
X129340337Y-59831676D01*
X129341118Y-59830281D01*
X129343466Y-59825268D01*
X129345497Y-59818777D01*
X129347233Y-59809829D01*
X129348697Y-59797442D01*
X129349912Y-59780636D01*
X129350901Y-59758430D01*
X129351687Y-59729843D01*
X129352292Y-59693895D01*
X129352741Y-59649604D01*
X129353055Y-59595991D01*
X129353258Y-59532075D01*
X129353372Y-59456874D01*
X129353420Y-59369408D01*
X129353428Y-59303478D01*
X129353413Y-59207425D01*
X129353353Y-59124299D01*
X129353224Y-59053121D01*
X129353003Y-58992915D01*
X129352665Y-58942705D01*
X129352187Y-58901514D01*
X129351545Y-58868365D01*
X129350716Y-58842281D01*
X129349676Y-58822285D01*
X129348401Y-58807401D01*
X129346868Y-58796652D01*
X129345052Y-58789061D01*
X129342931Y-58783651D01*
X129340722Y-58779813D01*
X129318330Y-58757931D01*
X129286779Y-58745225D01*
X129247900Y-58742357D01*
X129239191Y-58743045D01*
X129213997Y-58747748D01*
X129191991Y-58755390D01*
X129183643Y-58760149D01*
X129176943Y-58765444D01*
X129171138Y-58771272D01*
X129166169Y-58778609D01*
X129161976Y-58788425D01*
X129158499Y-58801695D01*
X129155679Y-58819392D01*
X129153456Y-58842487D01*
X129151770Y-58871954D01*
X129150562Y-58908766D01*
X129149771Y-58953895D01*
X129149340Y-59008315D01*
X129149207Y-59072999D01*
X128934063Y-59072999D01*
X128934084Y-59025423D01*
X128934350Y-58950127D01*
G37*
G36*
X130019013Y-58508936D02*
G01*
X130054588Y-58506943D01*
X130099717Y-58505584D01*
X130151254Y-58504844D01*
X130206054Y-58504704D01*
X130260972Y-58505150D01*
X130312862Y-58506165D01*
X130358578Y-58507732D01*
X130394975Y-58509835D01*
X130407582Y-58510963D01*
X130460190Y-58520065D01*
X130501380Y-58535605D01*
X130532486Y-58558492D01*
X130554844Y-58589632D01*
X130566718Y-58619085D01*
X130569308Y-58634431D01*
X130571660Y-58661714D01*
X130573748Y-58698968D01*
X130575548Y-58744228D01*
X130577034Y-58795530D01*
X130578180Y-58850908D01*
X130578961Y-58908399D01*
X130579351Y-58966036D01*
X130579325Y-59021856D01*
X130578858Y-59073893D01*
X130577924Y-59120182D01*
X130576497Y-59158759D01*
X130574552Y-59187659D01*
X130574139Y-59191732D01*
X130563019Y-59259301D01*
X130545346Y-59315400D01*
X130520620Y-59361075D01*
X130488337Y-59397373D01*
X130467767Y-59413321D01*
X130440640Y-59429933D01*
X130413560Y-59441872D01*
X130383467Y-59449820D01*
X130347300Y-59454461D01*
X130301999Y-59456477D01*
X130273303Y-59456715D01*
X130177291Y-59456715D01*
X130173679Y-60113611D01*
X129961665Y-60117449D01*
X129961665Y-59227322D01*
X130177155Y-59227322D01*
X130241454Y-59227312D01*
X130279073Y-59226308D01*
X130306193Y-59223010D01*
X130326094Y-59216968D01*
X130329987Y-59215147D01*
X130348390Y-59202571D01*
X130361763Y-59187662D01*
X130362903Y-59185615D01*
X130365567Y-59173283D01*
X130367783Y-59149393D01*
X130369544Y-59116284D01*
X130370840Y-59076292D01*
X130371664Y-59031755D01*
X130372007Y-58985012D01*
X130371860Y-58938400D01*
X130371216Y-58894257D01*
X130370065Y-58854921D01*
X130368400Y-58822729D01*
X130366211Y-58800019D01*
X130364320Y-58790887D01*
X130355094Y-58772183D01*
X130341059Y-58758886D01*
X130319953Y-58750042D01*
X130289517Y-58744696D01*
X130248406Y-58741928D01*
X130177155Y-58739156D01*
X130177155Y-59227322D01*
X129961665Y-59227322D01*
X129961665Y-58513401D01*
X130019013Y-58508936D01*
G37*
G36*
X117668126Y-59413920D02*
G01*
X117679452Y-59323289D01*
X117690792Y-59232620D01*
X117702013Y-59142973D01*
X117712983Y-59055405D01*
X117723569Y-58970975D01*
X117733640Y-58890740D01*
X117743063Y-58815759D01*
X117751706Y-58747090D01*
X117759436Y-58685791D01*
X117766121Y-58632922D01*
X117771629Y-58589538D01*
X117775828Y-58556700D01*
X117778585Y-58535466D01*
X117779753Y-58526980D01*
X117783642Y-58504389D01*
X117932779Y-58504389D01*
X117982803Y-58504512D01*
X118020546Y-58504956D01*
X118047628Y-58505830D01*
X118065672Y-58507246D01*
X118076296Y-58509313D01*
X118081121Y-58512143D01*
X118081917Y-58514559D01*
X118082732Y-58522673D01*
X118085108Y-58543706D01*
X118088940Y-58576772D01*
X118094123Y-58620988D01*
X118100551Y-58675468D01*
X118108119Y-58739329D01*
X118116723Y-58811687D01*
X118126257Y-58891656D01*
X118136617Y-58978354D01*
X118147697Y-59070894D01*
X118159393Y-59168393D01*
X118171598Y-59269967D01*
X118175759Y-59304557D01*
X118188122Y-59407434D01*
X118200009Y-59506626D01*
X118211314Y-59601240D01*
X118221932Y-59690383D01*
X118231759Y-59773161D01*
X118240687Y-59848680D01*
X118248613Y-59916047D01*
X118255431Y-59974367D01*
X118261036Y-60022748D01*
X118265322Y-60060296D01*
X118268183Y-60086117D01*
X118269516Y-60099318D01*
X118269602Y-60100736D01*
X118269602Y-60117087D01*
X118158381Y-60117087D01*
X118115984Y-60116909D01*
X118085624Y-60116259D01*
X118065436Y-60114965D01*
X118053558Y-60112855D01*
X118048126Y-60109757D01*
X118047161Y-60106800D01*
X118046402Y-60096149D01*
X118044322Y-60074363D01*
X118041215Y-60044116D01*
X118037378Y-60008080D01*
X118033104Y-59968929D01*
X118028690Y-59929337D01*
X118024429Y-59891977D01*
X118020617Y-59859522D01*
X118017549Y-59834645D01*
X118015520Y-59820020D01*
X118015503Y-59819920D01*
X118011774Y-59797328D01*
X117832775Y-59797328D01*
X117829019Y-59816444D01*
X117827015Y-59829400D01*
X117823775Y-59853533D01*
X117819635Y-59886203D01*
X117814931Y-59924775D01*
X117810685Y-59960683D01*
X117805808Y-60001906D01*
X117801257Y-60039198D01*
X117797354Y-60070010D01*
X117794422Y-60091792D01*
X117792903Y-60101447D01*
X117791207Y-60107456D01*
X117787561Y-60111688D01*
X117779829Y-60114453D01*
X117765871Y-60116065D01*
X117743549Y-60116833D01*
X117710725Y-60117070D01*
X117685561Y-60117087D01*
X117649299Y-60116855D01*
X117618531Y-60116216D01*
X117595661Y-60115254D01*
X117583094Y-60114055D01*
X117581424Y-60113398D01*
X117582269Y-60105754D01*
X117584715Y-60085375D01*
X117588629Y-60053318D01*
X117593880Y-60010642D01*
X117600335Y-59958405D01*
X117607862Y-59897664D01*
X117616329Y-59829479D01*
X117625603Y-59754907D01*
X117635552Y-59675007D01*
X117646044Y-59590837D01*
X117647817Y-59576625D01*
X117859250Y-59576625D01*
X117865669Y-59578709D01*
X117882212Y-59580316D01*
X117905105Y-59581386D01*
X117930576Y-59581859D01*
X117954853Y-59581674D01*
X117974162Y-59580772D01*
X117984730Y-59579091D01*
X117985480Y-59578640D01*
X117985346Y-59571424D01*
X117983850Y-59552200D01*
X117981186Y-59522777D01*
X117977544Y-59484963D01*
X117973115Y-59440567D01*
X117968091Y-59391396D01*
X117962664Y-59339259D01*
X117957026Y-59285964D01*
X117951366Y-59233319D01*
X117945878Y-59183132D01*
X117940752Y-59137213D01*
X117936181Y-59097368D01*
X117932355Y-59065406D01*
X117929466Y-59043136D01*
X117927705Y-59032366D01*
X117927590Y-59031966D01*
X117926403Y-59037394D01*
X117923776Y-59054862D01*
X117919931Y-59082604D01*
X117915088Y-59118858D01*
X117909470Y-59161858D01*
X117903296Y-59209842D01*
X117896790Y-59261046D01*
X117890171Y-59313704D01*
X117883662Y-59366054D01*
X117877483Y-59416331D01*
X117871856Y-59462772D01*
X117867003Y-59503612D01*
X117863144Y-59537087D01*
X117860501Y-59561435D01*
X117859296Y-59574889D01*
X117859250Y-59576625D01*
X117647817Y-59576625D01*
X117656946Y-59503455D01*
X117668126Y-59413920D01*
G37*
G36*
X114887498Y-53830402D02*
G01*
X114851645Y-53775070D01*
X114811371Y-53712680D01*
X114767179Y-53644012D01*
X114719575Y-53569846D01*
X114669061Y-53490963D01*
X114616143Y-53408143D01*
X114561325Y-53322166D01*
X114554070Y-53310773D01*
X114144013Y-52666774D01*
X114091879Y-52664261D01*
X114036936Y-52655573D01*
X113989490Y-52635179D01*
X113949574Y-52603099D01*
X113917219Y-52559352D01*
X113912397Y-52550612D01*
X113902517Y-52529443D01*
X113896901Y-52509201D01*
X113894453Y-52484489D01*
X113894036Y-52460245D01*
X113894849Y-52428792D01*
X113898032Y-52405718D01*
X113904705Y-52385555D01*
X113912688Y-52369021D01*
X113942498Y-52325537D01*
X113979827Y-52292196D01*
X114022640Y-52269329D01*
X114068907Y-52257270D01*
X114116593Y-52256349D01*
X114163665Y-52266899D01*
X114208090Y-52289252D01*
X114240051Y-52315549D01*
X114271859Y-52356686D01*
X114292024Y-52403466D01*
X114300136Y-52453422D01*
X114295787Y-52504090D01*
X114279221Y-52551693D01*
X114261794Y-52586907D01*
X114660240Y-53211753D01*
X114714316Y-53296508D01*
X114766399Y-53378046D01*
X114815991Y-53455592D01*
X114862593Y-53528370D01*
X114905706Y-53595605D01*
X114944831Y-53656521D01*
X114979471Y-53710342D01*
X115009126Y-53756293D01*
X115033298Y-53793597D01*
X115051487Y-53821481D01*
X115063196Y-53839166D01*
X115067895Y-53845850D01*
X115074412Y-53849438D01*
X115086676Y-53851605D01*
X115106667Y-53852423D01*
X115136368Y-53851965D01*
X115177758Y-53850306D01*
X115182301Y-53850092D01*
X115287500Y-53845084D01*
X115287500Y-53110191D01*
X118304358Y-53110191D01*
X118304358Y-53861266D01*
X118420233Y-53859360D01*
X118536109Y-53857454D01*
X118921162Y-53253524D01*
X119306215Y-52649595D01*
X119284465Y-52622530D01*
X119251137Y-52570540D01*
X119230069Y-52514160D01*
X119221141Y-52455333D01*
X119224237Y-52395999D01*
X119239237Y-52338099D01*
X119266022Y-52283573D01*
X119304475Y-52234364D01*
X119308404Y-52230361D01*
X119357583Y-52190577D01*
X119412654Y-52163017D01*
X119472109Y-52148176D01*
X119534439Y-52146547D01*
X119556109Y-52149105D01*
X119616280Y-52164982D01*
X119669994Y-52192047D01*
X119716214Y-52228727D01*
X119753905Y-52273453D01*
X119782030Y-52324651D01*
X119799553Y-52380752D01*
X119805439Y-52440183D01*
X119798651Y-52501373D01*
X119795914Y-52512797D01*
X119774582Y-52568953D01*
X119742493Y-52618782D01*
X119701471Y-52661058D01*
X119653342Y-52694559D01*
X119599930Y-52718059D01*
X119543062Y-52730333D01*
X119484561Y-52730158D01*
X119474086Y-52728724D01*
X119451817Y-52725707D01*
X119435531Y-52724434D01*
X119429765Y-52724894D01*
X119425543Y-52730979D01*
X119414352Y-52748032D01*
X119396680Y-52775289D01*
X119373018Y-52811987D01*
X119343856Y-52857362D01*
X119309682Y-52910649D01*
X119270985Y-52971085D01*
X119228257Y-53037906D01*
X119181985Y-53110349D01*
X119132660Y-53187648D01*
X119080771Y-53269040D01*
X119026807Y-53353762D01*
X119026590Y-53354103D01*
X118956183Y-53464557D01*
X118892909Y-53563535D01*
X118836555Y-53651364D01*
X118786905Y-53728371D01*
X118743745Y-53794881D01*
X118706862Y-53851221D01*
X118676041Y-53897718D01*
X118651068Y-53934698D01*
X118631729Y-53962488D01*
X118617808Y-53981414D01*
X118609092Y-53991803D01*
X118606739Y-53993825D01*
X118598298Y-53998301D01*
X118587945Y-54001629D01*
X118573623Y-54003977D01*
X118553274Y-54005509D01*
X118524843Y-54006393D01*
X118486273Y-54006795D01*
X118445122Y-54006881D01*
X118304358Y-54006907D01*
X118304358Y-54344262D01*
X118304432Y-54425002D01*
X118304670Y-54492792D01*
X118305097Y-54548586D01*
X118305736Y-54593337D01*
X118306612Y-54627996D01*
X118307750Y-54653518D01*
X118309173Y-54670855D01*
X118310906Y-54680959D01*
X118312974Y-54684784D01*
X118313047Y-54684813D01*
X118322106Y-54685484D01*
X118343114Y-54685718D01*
X118374129Y-54685536D01*
X118413205Y-54684958D01*
X118458397Y-54684004D01*
X118502101Y-54682857D01*
X118682466Y-54677706D01*
X119008571Y-54164635D01*
X119334676Y-53651565D01*
X119314949Y-53608532D01*
X119298576Y-53557610D01*
X119295027Y-53506605D01*
X119303591Y-53457490D01*
X119323554Y-53412235D01*
X119354203Y-53372814D01*
X119394825Y-53341199D01*
X119415527Y-53330337D01*
X119452970Y-53318837D01*
X119495624Y-53314605D01*
X119538220Y-53317604D01*
X119575487Y-53327798D01*
X119583395Y-53331488D01*
X119630212Y-53362016D01*
X119664804Y-53398944D01*
X119687602Y-53442925D01*
X119699039Y-53494610D01*
X119700093Y-53507408D01*
X119701140Y-53537500D01*
X119699390Y-53559556D01*
X119693955Y-53579312D01*
X119686150Y-53597775D01*
X119664338Y-53637691D01*
X119638969Y-53667562D01*
X119606398Y-53691247D01*
X119588957Y-53700647D01*
X119559125Y-53713737D01*
X119532731Y-53720200D01*
X119502855Y-53721904D01*
X119459292Y-53721904D01*
X119114102Y-54264231D01*
X119051106Y-54363083D01*
X118995131Y-54450647D01*
X118945842Y-54527431D01*
X118902903Y-54593942D01*
X118865980Y-54650689D01*
X118834736Y-54698180D01*
X118808835Y-54736922D01*
X118787942Y-54767424D01*
X118771722Y-54790193D01*
X118759838Y-54805739D01*
X118751956Y-54814567D01*
X118748995Y-54816858D01*
X118740913Y-54819877D01*
X118728649Y-54822268D01*
X118710719Y-54824099D01*
X118685639Y-54825434D01*
X118651925Y-54826340D01*
X118608094Y-54826882D01*
X118552660Y-54827127D01*
X118516718Y-54827158D01*
X118304358Y-54827158D01*
X118304358Y-55506190D01*
X118430596Y-55510763D01*
X118479978Y-55512344D01*
X118532909Y-55513688D01*
X118584454Y-55514692D01*
X118629673Y-55515253D01*
X118649451Y-55515336D01*
X118686966Y-55515431D01*
X118713277Y-55516019D01*
X118731081Y-55517558D01*
X118743075Y-55520502D01*
X118751959Y-55525307D01*
X118760430Y-55532428D01*
X118762614Y-55534452D01*
X118769316Y-55543052D01*
X118782878Y-55562538D01*
X118802737Y-55592040D01*
X118828326Y-55630690D01*
X118859082Y-55677620D01*
X118894439Y-55731962D01*
X118933831Y-55792847D01*
X118976695Y-55859407D01*
X119022465Y-55930774D01*
X119070576Y-56006079D01*
X119120212Y-56084058D01*
X119457265Y-56614549D01*
X119501214Y-56616291D01*
X119554628Y-56624928D01*
X119603198Y-56645851D01*
X119641332Y-56674806D01*
X119668676Y-56705754D01*
X119686455Y-56738238D01*
X119696470Y-56776460D01*
X119699985Y-56811751D01*
X119701077Y-56840732D01*
X119699870Y-56861364D01*
X119695247Y-56879150D01*
X119686091Y-56899591D01*
X119679567Y-56912330D01*
X119650267Y-56955929D01*
X119614719Y-56988561D01*
X119574650Y-57010646D01*
X119531787Y-57022603D01*
X119487856Y-57024854D01*
X119444583Y-57017819D01*
X119403696Y-57001918D01*
X119366920Y-56977572D01*
X119335983Y-56945201D01*
X119312610Y-56905226D01*
X119298528Y-56858067D01*
X119295105Y-56818702D01*
X119296360Y-56786896D01*
X119301483Y-56761492D01*
X119312076Y-56735178D01*
X119314499Y-56730164D01*
X119323954Y-56708160D01*
X119329160Y-56690388D01*
X119329175Y-56681505D01*
X119324790Y-56674440D01*
X119313497Y-56656503D01*
X119295842Y-56628556D01*
X119272374Y-56591463D01*
X119243637Y-56546085D01*
X119210180Y-56493286D01*
X119172549Y-56433929D01*
X119131289Y-56368875D01*
X119086949Y-56298989D01*
X119040075Y-56225133D01*
X119000975Y-56163543D01*
X118677681Y-55654361D01*
X118304358Y-55654361D01*
X118304358Y-56335587D01*
X118449948Y-56335587D01*
X118498573Y-56335644D01*
X118535278Y-56335941D01*
X118562043Y-56336668D01*
X118580850Y-56338012D01*
X118593680Y-56340165D01*
X118602515Y-56343315D01*
X118609336Y-56347652D01*
X118613665Y-56351228D01*
X118619766Y-56359089D01*
X118632816Y-56377915D01*
X118652312Y-56406933D01*
X118677753Y-56445369D01*
X118708635Y-56492450D01*
X118744456Y-56547404D01*
X118784714Y-56609457D01*
X118828907Y-56677837D01*
X118876531Y-56751771D01*
X118927086Y-56830486D01*
X118980068Y-56913208D01*
X119034974Y-56999166D01*
X119044013Y-57013338D01*
X119456233Y-57659807D01*
X119507649Y-57663571D01*
X119562145Y-57673065D01*
X119607903Y-57693238D01*
X119645677Y-57724615D01*
X119676221Y-57767719D01*
X119686150Y-57787412D01*
X119695256Y-57809552D01*
X119699956Y-57829300D01*
X119701132Y-57852390D01*
X119700093Y-57877779D01*
X119694029Y-57923836D01*
X119680778Y-57961386D01*
X119658473Y-57994765D01*
X119642118Y-58012470D01*
X119601268Y-58044028D01*
X119554875Y-58064157D01*
X119505496Y-58072281D01*
X119455688Y-58067827D01*
X119429915Y-58060141D01*
X119382193Y-58035333D01*
X119344029Y-58001589D01*
X119316156Y-57960714D01*
X119299310Y-57914516D01*
X119294223Y-57864801D01*
X119301630Y-57813377D01*
X119314838Y-57776903D01*
X119334453Y-57734119D01*
X118932827Y-57104200D01*
X118531200Y-56474281D01*
X118307834Y-56478089D01*
X118306036Y-56851720D01*
X118304237Y-57225352D01*
X115287500Y-57225352D01*
X115287500Y-56469832D01*
X115181704Y-56465253D01*
X115140744Y-56463624D01*
X115111393Y-56462947D01*
X115091381Y-56463371D01*
X115078438Y-56465043D01*
X115070293Y-56468109D01*
X115064677Y-56472718D01*
X115064547Y-56472857D01*
X115059478Y-56480113D01*
X115047583Y-56498129D01*
X115029477Y-56525942D01*
X115005774Y-56562586D01*
X114977090Y-56607098D01*
X114944039Y-56658513D01*
X114907236Y-56715869D01*
X114867297Y-56778201D01*
X114824836Y-56844544D01*
X114780469Y-56913936D01*
X114734810Y-56985411D01*
X114688474Y-57058006D01*
X114642076Y-57130757D01*
X114596232Y-57202700D01*
X114551556Y-57272871D01*
X114508663Y-57340305D01*
X114468168Y-57404040D01*
X114430687Y-57463110D01*
X114396833Y-57516552D01*
X114367223Y-57563402D01*
X114342471Y-57602696D01*
X114323191Y-57633470D01*
X114310000Y-57654759D01*
X114303512Y-57665601D01*
X114302963Y-57666676D01*
X114304946Y-57676332D01*
X114313247Y-57693331D01*
X114324459Y-57711515D01*
X114352576Y-57764899D01*
X114368223Y-57821150D01*
X114372038Y-57878507D01*
X114364662Y-57935205D01*
X114346732Y-57989484D01*
X114318888Y-58039581D01*
X114281769Y-58083734D01*
X114236014Y-58120180D01*
X114182262Y-58147157D01*
X114164280Y-58153260D01*
X114119573Y-58161954D01*
X114070001Y-58163673D01*
X114021234Y-58158623D01*
X113978940Y-58147014D01*
X113977454Y-58146412D01*
X113920027Y-58116185D01*
X113871439Y-58076884D01*
X113833084Y-58029882D01*
X113807070Y-57978489D01*
X113790797Y-57916502D01*
X113787752Y-57855060D01*
X113797298Y-57795721D01*
X113818798Y-57740043D01*
X113851613Y-57689585D01*
X113895108Y-57645905D01*
X113948643Y-57610563D01*
X113959804Y-57604964D01*
X113982256Y-57594818D01*
X114001165Y-57588447D01*
X114021113Y-57584988D01*
X114046680Y-57583577D01*
X114074500Y-57583343D01*
X114106156Y-57583870D01*
X114134213Y-57585284D01*
X114154665Y-57587339D01*
X114161392Y-57588705D01*
X114164380Y-57589225D01*
X114167763Y-57588538D01*
X114171980Y-57585991D01*
X114177468Y-57580930D01*
X114184665Y-57572702D01*
X114194008Y-57560654D01*
X114205937Y-57544133D01*
X114220888Y-57522486D01*
X114239300Y-57495059D01*
X114261611Y-57461199D01*
X114288259Y-57420253D01*
X114319681Y-57371568D01*
X114356315Y-57314490D01*
X114398600Y-57248366D01*
X114446973Y-57172543D01*
X114501873Y-57086368D01*
X114563737Y-56989188D01*
X114571499Y-56976991D01*
X114625341Y-56892487D01*
X114677351Y-56811042D01*
X114727013Y-56733456D01*
X114773810Y-56660526D01*
X114817226Y-56593051D01*
X114856744Y-56531830D01*
X114891849Y-56477662D01*
X114922024Y-56431345D01*
X114946753Y-56393677D01*
X114965520Y-56365457D01*
X114977807Y-56347484D01*
X114982828Y-56340801D01*
X115001428Y-56321685D01*
X115287500Y-56321685D01*
X115287500Y-55640459D01*
X115115456Y-55640561D01*
X115054993Y-55640846D01*
X115007413Y-55641652D01*
X114971703Y-55643026D01*
X114946851Y-55645014D01*
X114931845Y-55647664D01*
X114927721Y-55649250D01*
X114921557Y-55656401D01*
X114908489Y-55674558D01*
X114889019Y-55702960D01*
X114863644Y-55740844D01*
X114832865Y-55787449D01*
X114797180Y-55842012D01*
X114757088Y-55903772D01*
X114713090Y-55971967D01*
X114665684Y-56045834D01*
X114615369Y-56124613D01*
X114586323Y-56170252D01*
X114260615Y-56682667D01*
X114280516Y-56722121D01*
X114297230Y-56769099D01*
X114301392Y-56816158D01*
X114294252Y-56861694D01*
X114277059Y-56904100D01*
X114251061Y-56941771D01*
X114217507Y-56973100D01*
X114177646Y-56996483D01*
X114132727Y-57010312D01*
X114083997Y-57012982D01*
X114057166Y-57009347D01*
X114008072Y-56993193D01*
X113967103Y-56967465D01*
X113934617Y-56934051D01*
X113910970Y-56894836D01*
X113896519Y-56851708D01*
X113891623Y-56806554D01*
X113896637Y-56761260D01*
X113911919Y-56717713D01*
X113937826Y-56677799D01*
X113974716Y-56643407D01*
X113986405Y-56635439D01*
X114018371Y-56620106D01*
X114057566Y-56608501D01*
X114097479Y-56602230D01*
X114122308Y-56601872D01*
X114125931Y-56601742D01*
X114129901Y-56600399D01*
X114134691Y-56597143D01*
X114140775Y-56591271D01*
X114148626Y-56582083D01*
X114158718Y-56568877D01*
X114171523Y-56550951D01*
X114187516Y-56527603D01*
X114207170Y-56498133D01*
X114230959Y-56461838D01*
X114259355Y-56418017D01*
X114292832Y-56365969D01*
X114331865Y-56304991D01*
X114376925Y-56234383D01*
X114428487Y-56153443D01*
X114487025Y-56061470D01*
X114487251Y-56061114D01*
X114555428Y-55954162D01*
X114616373Y-55858963D01*
X114670142Y-55775432D01*
X114716791Y-55703484D01*
X114756377Y-55643033D01*
X114788955Y-55593994D01*
X114814582Y-55556282D01*
X114833313Y-55529811D01*
X114845206Y-55514496D01*
X114849569Y-55510327D01*
X114859341Y-55507610D01*
X114877327Y-55505450D01*
X114904590Y-55503807D01*
X114942192Y-55502640D01*
X114991196Y-55501908D01*
X115052665Y-55501569D01*
X115077223Y-55501536D01*
X115287500Y-55501433D01*
X115287500Y-54813256D01*
X115077223Y-54813153D01*
X115011050Y-54812940D01*
X114957725Y-54812345D01*
X114916200Y-54811327D01*
X114885424Y-54809846D01*
X114864349Y-54807861D01*
X114851924Y-54805333D01*
X114849569Y-54804385D01*
X114842600Y-54797103D01*
X114828878Y-54778800D01*
X114808342Y-54749381D01*
X114780930Y-54708754D01*
X114746582Y-54656825D01*
X114705235Y-54593501D01*
X114656829Y-54518688D01*
X114601301Y-54432294D01*
X114538591Y-54334224D01*
X114487218Y-54253598D01*
X114428648Y-54161578D01*
X114377056Y-54080595D01*
X114331967Y-54009947D01*
X114292908Y-53948932D01*
X114259407Y-53896849D01*
X114230988Y-53852996D01*
X114207180Y-53816672D01*
X114187509Y-53787176D01*
X114171500Y-53763805D01*
X114158682Y-53745860D01*
X114148581Y-53732637D01*
X114140722Y-53723436D01*
X114134634Y-53717555D01*
X114129842Y-53714292D01*
X114125873Y-53712947D01*
X114122275Y-53712816D01*
X114085755Y-53711227D01*
X114045392Y-53703182D01*
X114007701Y-53690289D01*
X113986405Y-53679250D01*
X113946539Y-53646641D01*
X113917750Y-53608010D01*
X113899680Y-53565244D01*
X113891973Y-53520230D01*
X113894272Y-53474854D01*
X113906220Y-53431004D01*
X113927459Y-53390566D01*
X113957632Y-53355427D01*
X113996383Y-53327473D01*
X114043354Y-53308593D01*
X114057166Y-53305342D01*
X114108438Y-53301494D01*
X114156950Y-53310126D01*
X114201038Y-53329855D01*
X114239040Y-53359304D01*
X114269292Y-53397090D01*
X114290130Y-53441834D01*
X114299890Y-53492155D01*
X114300412Y-53507172D01*
X114298721Y-53539177D01*
X114292391Y-53565597D01*
X114280516Y-53592568D01*
X114260615Y-53632022D01*
X114585746Y-54142969D01*
X114634503Y-54219557D01*
X114681235Y-54292896D01*
X114725388Y-54362121D01*
X114766410Y-54426370D01*
X114803747Y-54484777D01*
X114836846Y-54536478D01*
X114865155Y-54580610D01*
X114888119Y-54616309D01*
X114905186Y-54642710D01*
X114915803Y-54658948D01*
X114919306Y-54664074D01*
X114923996Y-54667245D01*
X114933191Y-54669704D01*
X114948428Y-54671535D01*
X114971243Y-54672820D01*
X115003174Y-54673642D01*
X115045757Y-54674084D01*
X115100528Y-54674229D01*
X115107618Y-54674230D01*
X115287500Y-54674230D01*
X115287500Y-53993004D01*
X115001428Y-53993004D01*
X114982777Y-53973888D01*
X114976600Y-53965548D01*
X114963479Y-53946250D01*
X114943919Y-53916772D01*
X114942727Y-53914954D01*
X115588434Y-53914954D01*
X115589907Y-53973596D01*
X115602833Y-54029464D01*
X115626417Y-54081173D01*
X115659865Y-54127337D01*
X115702384Y-54166570D01*
X115753180Y-54197487D01*
X115811459Y-54218702D01*
X115871408Y-54228490D01*
X115883631Y-54227835D01*
X115904410Y-54225334D01*
X115922758Y-54222565D01*
X115981376Y-54206376D01*
X116035449Y-54178610D01*
X116082659Y-54140936D01*
X116120691Y-54095024D01*
X116135719Y-54069147D01*
X116158189Y-54010324D01*
X116167675Y-53950608D01*
X116164862Y-53891655D01*
X116150431Y-53835123D01*
X116125066Y-53782667D01*
X116089450Y-53735946D01*
X116044266Y-53696615D01*
X115990199Y-53666332D01*
X115965750Y-53656959D01*
X115918070Y-53646980D01*
X115864876Y-53645847D01*
X115810852Y-53653021D01*
X115760681Y-53667966D01*
X115727857Y-53684283D01*
X115698388Y-53706339D01*
X115668184Y-53735224D01*
X115641558Y-53766384D01*
X115623018Y-53794892D01*
X115599206Y-53854924D01*
X115588434Y-53914954D01*
X114942727Y-53914954D01*
X114918424Y-53877897D01*
X114887498Y-53830402D01*
G37*
G36*
X127627354Y-52263811D02*
G01*
X127997093Y-52265609D01*
X128272863Y-53864405D01*
X128298257Y-54011599D01*
X128323051Y-54155255D01*
X128347140Y-54294765D01*
X128370418Y-54429523D01*
X128392780Y-54558919D01*
X128414121Y-54682348D01*
X128434335Y-54799202D01*
X128453318Y-54908874D01*
X128470965Y-55010756D01*
X128487169Y-55104242D01*
X128501826Y-55188723D01*
X128514831Y-55263593D01*
X128526079Y-55328243D01*
X128535463Y-55382068D01*
X128542880Y-55424459D01*
X128548223Y-55454810D01*
X128551388Y-55472512D01*
X128552263Y-55477104D01*
X128552600Y-55471547D01*
X128552936Y-55452692D01*
X128553269Y-55421141D01*
X128553597Y-55377499D01*
X128553918Y-55322369D01*
X128554230Y-55256355D01*
X128554533Y-55180060D01*
X128554823Y-55094089D01*
X128555101Y-54999044D01*
X128555363Y-54895530D01*
X128555609Y-54784150D01*
X128555836Y-54665508D01*
X128556043Y-54540208D01*
X128556228Y-54408852D01*
X128556390Y-54272046D01*
X128556527Y-54130392D01*
X128556637Y-53984495D01*
X128556699Y-53876570D01*
X128557505Y-52262134D01*
X129148365Y-52262134D01*
X129148365Y-57864870D01*
X128461695Y-57864870D01*
X128458066Y-57849230D01*
X128456595Y-57841090D01*
X128452891Y-57819822D01*
X128447052Y-57786004D01*
X128439178Y-57740213D01*
X128429365Y-57683028D01*
X128417714Y-57615027D01*
X128404324Y-57536786D01*
X128389291Y-57448884D01*
X128372717Y-57351899D01*
X128354698Y-57246407D01*
X128335334Y-57132988D01*
X128314724Y-57012219D01*
X128292966Y-56884677D01*
X128270159Y-56750940D01*
X128246401Y-56611587D01*
X128221792Y-56467194D01*
X128196430Y-56318340D01*
X128170413Y-56165602D01*
X128153194Y-56064487D01*
X127851950Y-54295385D01*
X127850199Y-56080128D01*
X127848447Y-57864870D01*
X127257615Y-57864870D01*
X127257615Y-52262012D01*
X127627354Y-52263811D01*
G37*
G36*
X113788818Y-59078018D02*
G01*
X113789675Y-58981145D01*
X113790595Y-58894773D01*
X113790639Y-58891082D01*
X113795255Y-58503893D01*
X113987012Y-58508212D01*
X114052306Y-58509884D01*
X114105525Y-58511854D01*
X114148494Y-58514412D01*
X114183042Y-58517850D01*
X114210995Y-58522459D01*
X114234180Y-58528528D01*
X114254424Y-58536350D01*
X114273553Y-58546215D01*
X114290456Y-58556521D01*
X114330352Y-58590162D01*
X114363265Y-58635226D01*
X114386011Y-58683955D01*
X114390584Y-58697409D01*
X114394160Y-58711495D01*
X114396897Y-58728196D01*
X114398953Y-58749493D01*
X114400485Y-58777371D01*
X114401651Y-58813811D01*
X114402609Y-58860796D01*
X114403234Y-58900612D01*
X114403922Y-58959268D01*
X114404028Y-59006038D01*
X114403475Y-59042929D01*
X114402190Y-59071950D01*
X114400098Y-59095107D01*
X114397126Y-59114409D01*
X114394916Y-59124853D01*
X114377373Y-59182441D01*
X114353915Y-59228323D01*
X114323816Y-59263687D01*
X114298716Y-59282629D01*
X114279637Y-59294554D01*
X114305668Y-59311373D01*
X114324715Y-59327165D01*
X114344616Y-59348923D01*
X114354225Y-59361862D01*
X114364744Y-59377942D01*
X114373523Y-59392907D01*
X114380743Y-59408170D01*
X114386585Y-59425149D01*
X114391227Y-59445257D01*
X114394850Y-59469910D01*
X114397635Y-59500524D01*
X114399760Y-59538515D01*
X114401406Y-59585296D01*
X114402754Y-59642285D01*
X114403982Y-59710895D01*
X114404751Y-59759096D01*
X114406059Y-59831843D01*
X114407575Y-59897033D01*
X114409256Y-59953597D01*
X114411063Y-60000466D01*
X114412954Y-60036572D01*
X114414889Y-60060845D01*
X114416705Y-60071904D01*
X114423612Y-60090840D01*
X114429036Y-60104922D01*
X114429980Y-60109520D01*
X114427205Y-60112790D01*
X114418805Y-60114958D01*
X114402872Y-60116246D01*
X114377502Y-60116878D01*
X114340786Y-60117078D01*
X114325318Y-60117087D01*
X114216658Y-60117087D01*
X114208261Y-60097971D01*
X114205835Y-60087169D01*
X114203682Y-60066054D01*
X114201776Y-60034017D01*
X114200094Y-59990450D01*
X114198612Y-59934743D01*
X114197306Y-59866288D01*
X114196268Y-59793852D01*
X114192672Y-59508850D01*
X114175752Y-59479307D01*
X114154393Y-59452005D01*
X114125989Y-59433922D01*
X114088743Y-59424229D01*
X114051452Y-59421959D01*
X114001512Y-59421959D01*
X114001512Y-59559852D01*
X114001341Y-59604788D01*
X114000861Y-59660063D01*
X114000118Y-59722120D01*
X113999159Y-59787399D01*
X113998032Y-59852343D01*
X113996915Y-59907416D01*
X113992319Y-60117087D01*
X113786022Y-60117087D01*
X113786022Y-59697679D01*
X113786115Y-59606085D01*
X113786382Y-59505483D01*
X113786805Y-59399124D01*
X113787364Y-59290259D01*
X113787967Y-59193949D01*
X114008463Y-59193949D01*
X114070474Y-59191520D01*
X114101312Y-59189882D01*
X114121892Y-59187286D01*
X114135856Y-59182839D01*
X114146848Y-59175650D01*
X114151331Y-59171712D01*
X114165453Y-59157426D01*
X114176265Y-59142559D01*
X114184199Y-59125058D01*
X114189686Y-59102870D01*
X114193157Y-59073940D01*
X114195043Y-59036216D01*
X114195775Y-58987644D01*
X114195843Y-58959698D01*
X114195707Y-58911066D01*
X114195183Y-58874117D01*
X114194093Y-58846633D01*
X114192258Y-58826397D01*
X114189500Y-58811190D01*
X114185644Y-58798794D01*
X114182315Y-58790868D01*
X114169085Y-58769189D01*
X114150902Y-58754380D01*
X114125372Y-58745425D01*
X114090101Y-58741306D01*
X114064297Y-58740732D01*
X114008463Y-58740732D01*
X114008463Y-59193949D01*
X113787967Y-59193949D01*
X113788041Y-59182140D01*
X113788818Y-59078018D01*
G37*
G36*
X133663225Y-58507864D02*
G01*
X133665511Y-58587804D01*
X133665781Y-58605837D01*
X133665948Y-58636722D01*
X133666016Y-58679408D01*
X133665988Y-58732846D01*
X133665868Y-58795984D01*
X133665660Y-58867772D01*
X133665365Y-58947161D01*
X133664989Y-59033099D01*
X133664533Y-59124536D01*
X133664003Y-59220423D01*
X133663400Y-59319707D01*
X133662925Y-59392416D01*
X133658053Y-60117087D01*
X133432203Y-60117087D01*
X133410111Y-60000653D01*
X133404602Y-59971660D01*
X133396814Y-59930730D01*
X133387073Y-59879580D01*
X133375708Y-59819928D01*
X133363046Y-59753494D01*
X133349413Y-59681994D01*
X133335139Y-59607147D01*
X133320549Y-59530672D01*
X133312406Y-59487996D01*
X133236793Y-59091772D01*
X133236257Y-59604430D01*
X133235721Y-60117087D01*
X133013222Y-60117087D01*
X133014989Y-59312476D01*
X133016756Y-58507864D01*
X133140217Y-58505966D01*
X133184348Y-58505334D01*
X133216584Y-58505142D01*
X133238932Y-58505604D01*
X133253396Y-58506935D01*
X133261984Y-58509349D01*
X133266700Y-58513061D01*
X133269551Y-58518286D01*
X133270213Y-58519868D01*
X133272584Y-58529304D01*
X133277227Y-58551225D01*
X133283916Y-58584438D01*
X133292418Y-58627754D01*
X133302506Y-58679980D01*
X133313949Y-58739926D01*
X133326518Y-58806402D01*
X133339983Y-58878214D01*
X133354115Y-58954174D01*
X133358766Y-58979301D01*
X133440784Y-59422933D01*
X133442571Y-58963485D01*
X133444359Y-58504036D01*
X133663225Y-58507864D01*
G37*
G36*
X120003818Y-58472747D02*
G01*
X120068718Y-58485313D01*
X120125621Y-58509236D01*
X120174485Y-58544489D01*
X120215272Y-58591048D01*
X120247943Y-58648889D01*
X120259395Y-58676977D01*
X120264219Y-58691503D01*
X120267949Y-58706974D01*
X120270776Y-58725546D01*
X120272889Y-58749375D01*
X120274481Y-58780617D01*
X120275741Y-58821428D01*
X120276861Y-58873964D01*
X120276872Y-58874545D01*
X120279844Y-59032686D01*
X120056082Y-59032686D01*
X120056082Y-58910352D01*
X120055410Y-58854065D01*
X120052884Y-58810158D01*
X120047735Y-58777150D01*
X120039198Y-58753558D01*
X120026505Y-58737904D01*
X120008889Y-58728705D01*
X119985583Y-58724482D01*
X119959415Y-58723708D01*
X119920041Y-58727884D01*
X119891037Y-58740064D01*
X119870942Y-58760955D01*
X119866671Y-58768546D01*
X119864273Y-58774146D01*
X119862211Y-58781327D01*
X119860460Y-58791110D01*
X119858994Y-58804516D01*
X119857789Y-58822566D01*
X119856818Y-58846281D01*
X119856058Y-58876681D01*
X119855483Y-58914788D01*
X119855068Y-58961622D01*
X119854788Y-59018205D01*
X119854618Y-59085558D01*
X119854532Y-59164701D01*
X119854506Y-59256655D01*
X119854506Y-59263475D01*
X119854606Y-59371314D01*
X119854917Y-59465589D01*
X119855442Y-59546636D01*
X119856188Y-59614791D01*
X119857159Y-59670391D01*
X119858360Y-59713772D01*
X119859798Y-59745271D01*
X119861477Y-59765224D01*
X119862369Y-59770799D01*
X119875961Y-59806905D01*
X119898094Y-59834437D01*
X119926533Y-59852181D01*
X119959043Y-59858922D01*
X119993388Y-59853446D01*
X120005340Y-59848462D01*
X120021444Y-59839368D01*
X120034033Y-59828511D01*
X120043576Y-59814125D01*
X120050543Y-59794443D01*
X120055404Y-59767700D01*
X120058627Y-59732129D01*
X120060683Y-59685964D01*
X120061888Y-59635711D01*
X120064609Y-59491471D01*
X120276516Y-59491471D01*
X120281238Y-59635711D01*
X120282911Y-59701260D01*
X120283050Y-59755111D01*
X120281422Y-59799408D01*
X120277789Y-59836294D01*
X120271916Y-59867914D01*
X120263567Y-59896410D01*
X120252508Y-59923927D01*
X120248639Y-59932284D01*
X120214429Y-59988978D01*
X120170917Y-60036164D01*
X120119579Y-60073112D01*
X120061890Y-60099097D01*
X119999327Y-60113390D01*
X119933366Y-60115264D01*
X119889251Y-60109455D01*
X119833361Y-60091734D01*
X119781108Y-60062146D01*
X119734453Y-60022623D01*
X119695356Y-59975101D01*
X119665781Y-59921511D01*
X119649752Y-59873322D01*
X119647579Y-59857216D01*
X119645492Y-59828599D01*
X119643507Y-59788865D01*
X119641638Y-59739405D01*
X119639898Y-59681612D01*
X119638303Y-59616877D01*
X119636867Y-59546593D01*
X119635604Y-59472152D01*
X119634528Y-59394947D01*
X119633654Y-59316369D01*
X119632996Y-59237811D01*
X119632568Y-59160665D01*
X119632385Y-59086324D01*
X119632462Y-59016179D01*
X119632812Y-58951622D01*
X119633450Y-58894047D01*
X119634390Y-58844844D01*
X119635647Y-58805407D01*
X119637234Y-58777128D01*
X119638338Y-58766197D01*
X119653680Y-58693332D01*
X119678518Y-58630142D01*
X119712507Y-58576973D01*
X119755304Y-58534172D01*
X119806563Y-58502085D01*
X119865942Y-58481060D01*
X119930959Y-58471562D01*
X120003818Y-58472747D01*
G37*
G36*
X133029112Y-52255295D02*
G01*
X133089238Y-52255617D01*
X133143590Y-52256125D01*
X133190760Y-52256797D01*
X133229342Y-52257608D01*
X133257928Y-52258535D01*
X133275111Y-52259555D01*
X133279689Y-52260396D01*
X133281260Y-52267724D01*
X133285156Y-52287970D01*
X133291237Y-52320369D01*
X133299362Y-52364157D01*
X133309393Y-52418570D01*
X133321190Y-52482843D01*
X133334612Y-52556212D01*
X133349521Y-52637912D01*
X133365776Y-52727178D01*
X133383239Y-52823247D01*
X133401769Y-52925353D01*
X133421226Y-53032732D01*
X133441472Y-53144621D01*
X133462365Y-53260253D01*
X133462570Y-53261387D01*
X133485178Y-53386325D01*
X133506800Y-53505282D01*
X133527321Y-53617644D01*
X133546626Y-53722799D01*
X133564600Y-53820133D01*
X133581127Y-53909034D01*
X133596093Y-53988887D01*
X133609381Y-54059080D01*
X133620877Y-54119000D01*
X133630466Y-54168034D01*
X133638033Y-54205568D01*
X133643461Y-54230990D01*
X133646636Y-54243685D01*
X133647393Y-54244994D01*
X133649201Y-54236827D01*
X133653328Y-54215761D01*
X133659630Y-54182579D01*
X133667963Y-54138066D01*
X133678183Y-54083005D01*
X133690147Y-54018180D01*
X133703710Y-53944374D01*
X133718729Y-53862372D01*
X133735060Y-53772956D01*
X133752559Y-53676911D01*
X133771082Y-53575021D01*
X133790486Y-53468068D01*
X133810626Y-53356838D01*
X133826939Y-53266595D01*
X133847566Y-53152409D01*
X133867552Y-53041797D01*
X133886754Y-52935548D01*
X133905029Y-52834455D01*
X133922234Y-52739308D01*
X133938226Y-52650897D01*
X133952861Y-52570015D01*
X133965996Y-52497453D01*
X133977489Y-52434000D01*
X133987195Y-52380449D01*
X133994972Y-52337591D01*
X134000677Y-52306215D01*
X134004166Y-52287115D01*
X134005257Y-52281250D01*
X134009052Y-52262134D01*
X134632930Y-52262134D01*
X134632930Y-52289286D01*
X134631483Y-52298486D01*
X134627230Y-52320672D01*
X134620296Y-52355240D01*
X134610810Y-52401588D01*
X134598900Y-52459111D01*
X134584694Y-52527207D01*
X134568318Y-52605272D01*
X134549900Y-52692704D01*
X134529569Y-52788898D01*
X134507452Y-52893251D01*
X134483677Y-53005160D01*
X134458371Y-53124022D01*
X134431662Y-53249234D01*
X134403678Y-53380191D01*
X134374546Y-53516292D01*
X134344394Y-53656932D01*
X134313349Y-53801508D01*
X134285390Y-53931528D01*
X133937850Y-55546616D01*
X133937826Y-56705743D01*
X133937801Y-57864870D01*
X133346942Y-57864870D01*
X133346864Y-56691841D01*
X133346786Y-55518811D01*
X132996576Y-53892210D01*
X132964781Y-53744450D01*
X132933788Y-53600259D01*
X132903723Y-53460227D01*
X132874711Y-53324945D01*
X132846879Y-53195003D01*
X132820352Y-53070992D01*
X132795255Y-52953502D01*
X132771714Y-52843124D01*
X132749854Y-52740448D01*
X132729802Y-52646065D01*
X132711682Y-52560564D01*
X132695620Y-52484538D01*
X132681743Y-52418575D01*
X132670175Y-52363267D01*
X132661042Y-52319203D01*
X132654470Y-52286975D01*
X132650584Y-52267173D01*
X132649500Y-52260396D01*
X132656882Y-52259319D01*
X132676758Y-52258318D01*
X132707721Y-52257414D01*
X132748363Y-52256633D01*
X132797277Y-52255996D01*
X132853054Y-52255528D01*
X132914286Y-52255251D01*
X132964621Y-52255182D01*
X133029112Y-52255295D01*
G37*
G36*
X115336159Y-58740732D02*
G01*
X114995546Y-58740732D01*
X114995546Y-59157810D01*
X115266646Y-59157810D01*
X115266646Y-59380251D01*
X114995546Y-59380251D01*
X114995546Y-59880743D01*
X115336159Y-59880743D01*
X115336159Y-60117087D01*
X114773047Y-60117087D01*
X114774813Y-59312476D01*
X114776580Y-58507864D01*
X115056370Y-58506048D01*
X115336159Y-58504231D01*
X115336159Y-58740732D01*
G37*
G36*
X130522189Y-52262228D02*
G01*
X130588295Y-52262500D01*
X130648775Y-52262931D01*
X130702355Y-52263503D01*
X130747761Y-52264199D01*
X130783721Y-52265000D01*
X130808959Y-52265890D01*
X130822202Y-52266849D01*
X130823927Y-52267347D01*
X130825124Y-52274580D01*
X130828586Y-52294911D01*
X130834212Y-52327735D01*
X130841897Y-52372453D01*
X130851536Y-52428460D01*
X130863027Y-52495156D01*
X130876264Y-52571937D01*
X130891145Y-52658202D01*
X130907565Y-52753349D01*
X130925420Y-52856776D01*
X130944607Y-52967879D01*
X130965021Y-53086058D01*
X130986558Y-53210710D01*
X131009115Y-53341232D01*
X131032588Y-53477023D01*
X131056872Y-53617480D01*
X131081864Y-53762002D01*
X131101379Y-53874832D01*
X131378528Y-55477104D01*
X131379728Y-52262134D01*
X131970587Y-52262134D01*
X131970587Y-57862687D01*
X131854781Y-57867254D01*
X131817584Y-57868425D01*
X131769463Y-57869484D01*
X131713394Y-57870393D01*
X131652355Y-57871111D01*
X131589322Y-57871598D01*
X131527273Y-57871814D01*
X131514300Y-57871822D01*
X131289626Y-57871822D01*
X131285928Y-57856181D01*
X131284452Y-57848044D01*
X131280743Y-57826777D01*
X131274898Y-57792958D01*
X131267018Y-57747163D01*
X131257199Y-57689969D01*
X131245542Y-57621952D01*
X131232143Y-57543689D01*
X131217102Y-57455757D01*
X131200518Y-57358732D01*
X131182488Y-57253191D01*
X131163111Y-57139710D01*
X131142486Y-57018867D01*
X131120711Y-56891237D01*
X131097885Y-56757397D01*
X131074107Y-56617924D01*
X131049474Y-56473394D01*
X131024085Y-56324385D01*
X130998040Y-56171472D01*
X130979822Y-56064487D01*
X130953399Y-55909343D01*
X130927572Y-55757767D01*
X130902438Y-55610331D01*
X130878096Y-55467608D01*
X130854644Y-55330172D01*
X130832179Y-55198595D01*
X130810800Y-55073449D01*
X130790605Y-54955309D01*
X130771691Y-54844746D01*
X130754158Y-54742334D01*
X130738102Y-54648645D01*
X130723623Y-54564253D01*
X130710818Y-54489730D01*
X130699785Y-54425650D01*
X130690622Y-54372584D01*
X130683428Y-54331106D01*
X130678300Y-54301789D01*
X130675337Y-54285206D01*
X130674604Y-54281482D01*
X130674356Y-54287724D01*
X130674110Y-54307293D01*
X130673867Y-54339614D01*
X130673628Y-54384110D01*
X130673394Y-54440206D01*
X130673165Y-54507327D01*
X130672944Y-54584898D01*
X130672731Y-54672341D01*
X130672527Y-54769083D01*
X130672333Y-54874547D01*
X130672151Y-54988158D01*
X130671981Y-55109341D01*
X130671825Y-55237519D01*
X130671683Y-55372116D01*
X130671557Y-55512559D01*
X130671448Y-55658270D01*
X130671356Y-55808675D01*
X130671284Y-55963198D01*
X130671245Y-56073176D01*
X130670696Y-57871822D01*
X130379901Y-57871822D01*
X130317624Y-57871714D01*
X130259695Y-57871408D01*
X130207584Y-57870925D01*
X130162759Y-57870289D01*
X130126690Y-57869523D01*
X130100848Y-57868649D01*
X130086701Y-57867692D01*
X130084471Y-57867187D01*
X130084146Y-57859986D01*
X130083827Y-57839346D01*
X130083514Y-57805733D01*
X130083209Y-57759612D01*
X130082911Y-57701447D01*
X130082623Y-57631703D01*
X130082345Y-57550845D01*
X130082077Y-57459337D01*
X130081820Y-57357644D01*
X130081575Y-57246230D01*
X130081344Y-57125562D01*
X130081125Y-56996102D01*
X130080921Y-56858317D01*
X130080732Y-56712670D01*
X130080559Y-56559626D01*
X130080403Y-56399651D01*
X130080264Y-56233208D01*
X130080143Y-56060763D01*
X130080041Y-55882779D01*
X130079959Y-55699723D01*
X130079897Y-55512058D01*
X130079857Y-55320250D01*
X130079838Y-55124762D01*
X130079837Y-55062343D01*
X130079837Y-52262134D01*
X130451731Y-52262134D01*
X130522189Y-52262228D01*
G37*
G36*
X118638366Y-59041425D02*
G01*
X118638621Y-58951605D01*
X118638937Y-58868046D01*
X118639310Y-58791682D01*
X118639733Y-58723449D01*
X118640201Y-58664282D01*
X118640709Y-58615115D01*
X118641253Y-58576885D01*
X118641826Y-58550526D01*
X118642423Y-58536974D01*
X118642528Y-58536001D01*
X118647036Y-58503112D01*
X118838902Y-58506098D01*
X118903155Y-58507283D01*
X118955385Y-58508844D01*
X118997469Y-58511097D01*
X119031285Y-58514359D01*
X119058713Y-58518947D01*
X119081629Y-58525178D01*
X119101913Y-58533370D01*
X119121443Y-58543840D01*
X119142098Y-58556903D01*
X119142843Y-58557397D01*
X119183821Y-58592849D01*
X119215875Y-58638631D01*
X119238644Y-58694122D01*
X119249256Y-58740774D01*
X119251530Y-58761906D01*
X119253509Y-58793920D01*
X119255077Y-58833796D01*
X119256116Y-58878516D01*
X119256511Y-58925059D01*
X119256511Y-58928417D01*
X119255938Y-58991981D01*
X119254072Y-59043978D01*
X119250596Y-59086712D01*
X119245191Y-59122484D01*
X119237539Y-59153596D01*
X119227322Y-59182351D01*
X119218728Y-59201773D01*
X119203802Y-59227410D01*
X119184765Y-59251940D01*
X119164431Y-59272456D01*
X119145616Y-59286052D01*
X119133279Y-59289998D01*
X119130919Y-59292840D01*
X119139732Y-59300272D01*
X119148616Y-59305679D01*
X119181757Y-59331845D01*
X119210441Y-59369412D01*
X119233067Y-59416176D01*
X119237068Y-59427465D01*
X119240984Y-59439748D01*
X119244192Y-59451782D01*
X119246771Y-59465073D01*
X119248802Y-59481128D01*
X119250364Y-59501454D01*
X119251539Y-59527556D01*
X119252404Y-59560943D01*
X119253042Y-59603120D01*
X119253530Y-59655595D01*
X119253950Y-59719874D01*
X119254114Y-59748669D01*
X119254601Y-59821953D01*
X119255248Y-59882828D01*
X119256167Y-59932784D01*
X119257469Y-59973316D01*
X119259266Y-60005914D01*
X119261671Y-60032072D01*
X119264794Y-60053282D01*
X119268749Y-60071036D01*
X119273647Y-60086827D01*
X119279600Y-60102146D01*
X119280850Y-60105103D01*
X119281999Y-60109721D01*
X119279602Y-60112959D01*
X119271765Y-60115006D01*
X119256593Y-60116049D01*
X119232192Y-60116276D01*
X119196668Y-60115877D01*
X119175842Y-60115530D01*
X119065569Y-60113611D01*
X119055458Y-60085806D01*
X119052707Y-60075956D01*
X119050530Y-60062252D01*
X119048885Y-60043289D01*
X119047730Y-60017661D01*
X119047024Y-59983961D01*
X119046726Y-59940784D01*
X119046792Y-59886723D01*
X119047183Y-59820374D01*
X119047264Y-59809613D01*
X119047695Y-59734942D01*
X119047647Y-59672803D01*
X119046996Y-59621827D01*
X119045616Y-59580647D01*
X119043381Y-59547897D01*
X119040167Y-59522209D01*
X119035849Y-59502216D01*
X119030300Y-59486550D01*
X119023395Y-59473845D01*
X119015530Y-59463347D01*
X118994558Y-59442760D01*
X118971127Y-59429972D01*
X118941432Y-59423530D01*
X118907020Y-59421959D01*
X118855570Y-59421959D01*
X118851106Y-59479307D01*
X118850130Y-59498840D01*
X118849226Y-59530432D01*
X118848418Y-59572235D01*
X118847728Y-59622406D01*
X118847182Y-59679099D01*
X118846804Y-59740469D01*
X118846616Y-59804671D01*
X118846600Y-59826871D01*
X118846558Y-60117087D01*
X118768357Y-60115919D01*
X118733806Y-60115193D01*
X118701739Y-60114150D01*
X118676309Y-60112943D01*
X118664087Y-60112023D01*
X118638020Y-60109297D01*
X118638020Y-59339094D01*
X118638060Y-59236104D01*
X118638111Y-59192566D01*
X118853510Y-59192566D01*
X118910858Y-59192540D01*
X118944144Y-59191594D01*
X118967470Y-59188364D01*
X118984678Y-59182208D01*
X118989788Y-59179354D01*
X119007400Y-59164770D01*
X119024375Y-59144863D01*
X119028020Y-59139410D01*
X119033455Y-59130204D01*
X119037557Y-59121068D01*
X119040514Y-59109980D01*
X119042512Y-59094918D01*
X119043739Y-59073859D01*
X119044383Y-59044780D01*
X119044631Y-59005658D01*
X119044670Y-58959698D01*
X119044610Y-58909599D01*
X119044311Y-58871391D01*
X119043595Y-58843061D01*
X119042283Y-58822598D01*
X119040196Y-58807990D01*
X119037156Y-58797224D01*
X119032985Y-58788290D01*
X119028843Y-58781317D01*
X119014229Y-58763072D01*
X118995440Y-58750932D01*
X118969703Y-58743899D01*
X118934248Y-58740975D01*
X118916090Y-58740732D01*
X118862574Y-58740732D01*
X118858042Y-58814802D01*
X118856647Y-58845001D01*
X118855426Y-58885583D01*
X118854450Y-58933030D01*
X118853789Y-58983823D01*
X118853514Y-59034443D01*
X118853510Y-59040719D01*
X118853510Y-59192566D01*
X118638111Y-59192566D01*
X118638177Y-59136569D01*
X118638366Y-59041425D01*
G37*
G36*
X117233860Y-58740732D02*
G01*
X116893247Y-58740732D01*
X116893247Y-59157810D01*
X117164347Y-59157810D01*
X117164347Y-59380251D01*
X116893247Y-59380251D01*
X116893247Y-59880743D01*
X117233860Y-59880743D01*
X117233860Y-60117087D01*
X116670806Y-60117087D01*
X116670806Y-58504389D01*
X117233860Y-58504389D01*
X117233860Y-58740732D01*
G37*
G36*
X123498686Y-53368954D02*
G01*
X123500445Y-54482725D01*
X123859178Y-53370692D01*
X124217912Y-52258658D01*
X124523026Y-52261312D01*
X124586730Y-52261900D01*
X124646009Y-52262511D01*
X124699447Y-52263126D01*
X124745629Y-52263726D01*
X124783137Y-52264291D01*
X124810557Y-52264804D01*
X124826471Y-52265243D01*
X124830005Y-52265494D01*
X124828110Y-52272162D01*
X124822158Y-52291357D01*
X124812373Y-52322382D01*
X124798980Y-52364535D01*
X124782202Y-52417120D01*
X124762265Y-52479435D01*
X124739392Y-52550784D01*
X124713808Y-52630465D01*
X124685738Y-52717780D01*
X124655406Y-52812031D01*
X124623037Y-52912518D01*
X124588854Y-53018541D01*
X124553082Y-53129403D01*
X124515946Y-53244403D01*
X124487654Y-53331959D01*
X124449585Y-53449836D01*
X124412696Y-53564256D01*
X124377213Y-53674506D01*
X124343364Y-53779875D01*
X124311373Y-53879651D01*
X124281470Y-53973121D01*
X124253878Y-54059575D01*
X124228827Y-54138300D01*
X124206541Y-54208584D01*
X124187249Y-54269716D01*
X124171175Y-54320984D01*
X124158548Y-54361675D01*
X124149593Y-54391078D01*
X124144537Y-54408482D01*
X124143439Y-54413183D01*
X124144794Y-54421362D01*
X124148784Y-54442585D01*
X124155292Y-54476269D01*
X124164201Y-54521831D01*
X124175395Y-54578686D01*
X124188757Y-54646252D01*
X124204172Y-54723945D01*
X124221522Y-54811181D01*
X124240691Y-54907378D01*
X124261563Y-55011951D01*
X124284022Y-55124317D01*
X124307951Y-55243893D01*
X124333234Y-55370096D01*
X124359753Y-55502341D01*
X124387394Y-55640045D01*
X124416039Y-55782626D01*
X124445573Y-55929499D01*
X124475878Y-56080080D01*
X124487527Y-56137932D01*
X124518081Y-56289671D01*
X124547907Y-56437872D01*
X124576891Y-56581954D01*
X124604914Y-56721337D01*
X124631863Y-56855440D01*
X124657619Y-56983683D01*
X124682067Y-57105486D01*
X124705091Y-57220269D01*
X124726574Y-57327450D01*
X124746400Y-57426451D01*
X124764453Y-57516690D01*
X124780617Y-57597587D01*
X124794775Y-57668563D01*
X124806811Y-57729036D01*
X124816609Y-57778426D01*
X124824053Y-57816153D01*
X124829026Y-57841638D01*
X124831412Y-57854298D01*
X124831616Y-57855632D01*
X124829417Y-57857918D01*
X124822095Y-57859811D01*
X124808563Y-57861346D01*
X124787733Y-57862554D01*
X124758519Y-57863469D01*
X124719831Y-57864125D01*
X124670584Y-57864555D01*
X124609690Y-57864792D01*
X124536061Y-57864870D01*
X124228608Y-57864870D01*
X124039771Y-56914282D01*
X124016562Y-56797446D01*
X123993589Y-56681789D01*
X123971052Y-56568317D01*
X123949150Y-56458033D01*
X123928082Y-56351944D01*
X123908049Y-56251054D01*
X123889249Y-56156367D01*
X123871883Y-56068890D01*
X123856150Y-55989627D01*
X123842248Y-55919582D01*
X123830379Y-55859761D01*
X123820741Y-55811169D01*
X123813533Y-55774811D01*
X123811398Y-55764032D01*
X123801247Y-55713701D01*
X123791745Y-55668362D01*
X123783264Y-55629649D01*
X123776175Y-55599198D01*
X123770849Y-55578640D01*
X123767658Y-55569611D01*
X123767172Y-55569396D01*
X123764263Y-55576731D01*
X123757481Y-55596160D01*
X123747202Y-55626541D01*
X123733805Y-55666731D01*
X123717666Y-55715589D01*
X123699161Y-55771972D01*
X123678670Y-55834737D01*
X123656568Y-55902741D01*
X123633233Y-55974844D01*
X123629725Y-55985709D01*
X123496969Y-56396996D01*
X123496969Y-57864870D01*
X122906110Y-57864870D01*
X122906110Y-52255182D01*
X123496927Y-52255182D01*
X123498686Y-53368954D01*
G37*
G36*
X134632930Y-58740732D02*
G01*
X134452196Y-58740732D01*
X134452196Y-60110136D01*
X134236706Y-60110136D01*
X134236706Y-58740732D01*
X134006978Y-58740732D01*
X134008884Y-58624298D01*
X134010789Y-58507864D01*
X134321860Y-58506055D01*
X134632930Y-58504246D01*
X134632930Y-58740732D01*
G37*
%TD*%
D10*
%TO.C,R9*%
X143560800Y-70205600D03*
D11*
X143560800Y-80365600D03*
%TD*%
D10*
%TO.C,R8*%
X130505200Y-86461600D03*
D11*
X140665200Y-86461600D03*
%TD*%
D10*
%TO.C,R5*%
X130429000Y-73660000D03*
D11*
X140589000Y-73660000D03*
%TD*%
D10*
%TO.C,R2*%
X130429000Y-66548000D03*
D11*
X140589000Y-66548000D03*
%TD*%
D12*
%TO.C,SW1*%
X157056500Y-85090000D03*
D11*
X149436500Y-85090000D03*
%TD*%
D10*
%TO.C,R4*%
X130429000Y-63119000D03*
D11*
X140589000Y-63119000D03*
%TD*%
D10*
%TO.C,R6*%
X130429000Y-77216000D03*
D11*
X140589000Y-77216000D03*
%TD*%
D13*
%TO.C,J1*%
X117856000Y-73533000D03*
X119634000Y-72517000D03*
X117856000Y-71501000D03*
X119634000Y-70485000D03*
X117856000Y-69469000D03*
X119634000Y-68453000D03*
X117856000Y-67437000D03*
X119634000Y-66421000D03*
D14*
X115316000Y-76327000D03*
X115316000Y-63627000D03*
%TD*%
D10*
%TO.C,R3*%
X162814000Y-75946000D03*
D11*
X162814000Y-86106000D03*
%TD*%
D10*
%TO.C,R1*%
X130429000Y-70104000D03*
D11*
X140589000Y-70104000D03*
%TD*%
D15*
%TO.C,U1*%
X146662000Y-59643000D03*
X146662000Y-62183000D03*
X146662000Y-64723000D03*
X146662000Y-67263000D03*
X146662000Y-69803000D03*
X159362000Y-69803000D03*
X159362000Y-67263000D03*
X159362000Y-64723000D03*
X159362000Y-62183000D03*
X159362000Y-59643000D03*
%TD*%
D10*
%TO.C,R7*%
X148082000Y-80010000D03*
D11*
X158242000Y-80010000D03*
%TD*%
D16*
%TO.C,BT1*%
X139005000Y-58354000D03*
X139005000Y-81854000D03*
D17*
X162725000Y-58354000D03*
X162725000Y-71054000D03*
%TD*%
M02*
