M48
; DRILL file {KiCad (6.0.9)} date Thu Dec 29 15:09:47 2022
; FORMAT={-:-/ absolute / inch / decimal}
; #@! TF.CreationDate,2022-12-29T15:09:47-06:00
; #@! TF.GenerationSoftware,Kicad,Pcbnew,(6.0.9)
; #@! TF.FileFunction,Plated,1,2,PTH
FMAT,2
INCH
; #@! TA.AperFunction,Plated,PTH,ComponentDrill
T1C0.0315
; #@! TA.AperFunction,Plated,PTH,ComponentDrill
T2C0.0354
; #@! TA.AperFunction,Plated,PTH,ComponentDrill
T3C0.0472
; #@! TA.AperFunction,Plated,PTH,ComponentDrill
T4C0.1280
%
G90
G05
T1
X5.135Y-2.485
X5.135Y-2.62
X5.135Y-2.76
X5.135Y-2.9
X5.135Y-3.04
X5.138Y-3.404
X5.535Y-2.485
X5.535Y-2.62
X5.535Y-2.76
X5.535Y-2.9
X5.535Y-3.04
X5.538Y-3.404
X5.652Y-2.764
X5.652Y-3.164
X5.7741Y-2.3481
X5.7741Y-2.4481
X5.7741Y-2.5481
X5.7741Y-2.6481
X5.7741Y-2.7481
X5.83Y-3.15
X5.8833Y-3.35
X6.1833Y-3.35
X6.23Y-3.15
X6.2741Y-2.3481
X6.2741Y-2.4481
X6.2741Y-2.5481
X6.2741Y-2.6481
X6.2741Y-2.7481
X6.41Y-2.99
X6.41Y-3.39
T2
X4.64Y-2.655
X4.64Y-2.735
X4.64Y-2.815
X4.64Y-2.895
X4.71Y-2.615
X4.71Y-2.695
X4.71Y-2.775
X4.71Y-2.855
T3
X6.4065Y-2.2974
X6.4065Y-2.7974
T4
X4.54Y-2.505
X4.54Y-3.005
T0
M30
