%TF.GenerationSoftware,KiCad,Pcbnew,(6.0.9)*%
%TF.CreationDate,2022-12-29T15:09:43-06:00*%
%TF.ProjectId,Mr_Radar_Kit,4d725f52-6164-4617-925f-4b69742e6b69,rev?*%
%TF.SameCoordinates,Original*%
%TF.FileFunction,Legend,Top*%
%TF.FilePolarity,Positive*%
%FSLAX46Y46*%
G04 Gerber Fmt 4.6, Leading zero omitted, Abs format (unit mm)*
G04 Created by KiCad (PCBNEW (6.0.9)) date 2022-12-29 15:09:43*
%MOMM*%
%LPD*%
G01*
G04 APERTURE LIST*
%ADD10C,0.300000*%
%ADD11C,0.150000*%
%ADD12C,0.304800*%
%ADD13C,0.203200*%
%ADD14C,0.120000*%
G04 APERTURE END LIST*
D10*
X113665857Y-87899761D02*
X113665857Y-85899761D01*
X114332523Y-87328333D01*
X114999190Y-85899761D01*
X114999190Y-87899761D01*
X115951571Y-87899761D02*
X115951571Y-86566428D01*
X115951571Y-86947380D02*
X116046809Y-86756904D01*
X116142047Y-86661666D01*
X116332523Y-86566428D01*
X116523000Y-86566428D01*
X117189666Y-87709285D02*
X117284904Y-87804523D01*
X117189666Y-87899761D01*
X117094428Y-87804523D01*
X117189666Y-87709285D01*
X117189666Y-87899761D01*
X120808714Y-87899761D02*
X120142047Y-86947380D01*
X119665857Y-87899761D02*
X119665857Y-85899761D01*
X120427761Y-85899761D01*
X120618238Y-85995000D01*
X120713476Y-86090238D01*
X120808714Y-86280714D01*
X120808714Y-86566428D01*
X120713476Y-86756904D01*
X120618238Y-86852142D01*
X120427761Y-86947380D01*
X119665857Y-86947380D01*
X122523000Y-87899761D02*
X122523000Y-86852142D01*
X122427761Y-86661666D01*
X122237285Y-86566428D01*
X121856333Y-86566428D01*
X121665857Y-86661666D01*
X122523000Y-87804523D02*
X122332523Y-87899761D01*
X121856333Y-87899761D01*
X121665857Y-87804523D01*
X121570619Y-87614047D01*
X121570619Y-87423571D01*
X121665857Y-87233095D01*
X121856333Y-87137857D01*
X122332523Y-87137857D01*
X122523000Y-87042619D01*
X124332523Y-87899761D02*
X124332523Y-85899761D01*
X124332523Y-87804523D02*
X124142047Y-87899761D01*
X123761095Y-87899761D01*
X123570619Y-87804523D01*
X123475380Y-87709285D01*
X123380142Y-87518809D01*
X123380142Y-86947380D01*
X123475380Y-86756904D01*
X123570619Y-86661666D01*
X123761095Y-86566428D01*
X124142047Y-86566428D01*
X124332523Y-86661666D01*
X126142047Y-87899761D02*
X126142047Y-86852142D01*
X126046809Y-86661666D01*
X125856333Y-86566428D01*
X125475380Y-86566428D01*
X125284904Y-86661666D01*
X126142047Y-87804523D02*
X125951571Y-87899761D01*
X125475380Y-87899761D01*
X125284904Y-87804523D01*
X125189666Y-87614047D01*
X125189666Y-87423571D01*
X125284904Y-87233095D01*
X125475380Y-87137857D01*
X125951571Y-87137857D01*
X126142047Y-87042619D01*
X127094428Y-87899761D02*
X127094428Y-86566428D01*
X127094428Y-86947380D02*
X127189666Y-86756904D01*
X127284904Y-86661666D01*
X127475380Y-86566428D01*
X127665857Y-86566428D01*
D11*
%TO.C,R9*%
X144114780Y-75299866D02*
X143638590Y-75633200D01*
X144114780Y-75871295D02*
X143114780Y-75871295D01*
X143114780Y-75490342D01*
X143162400Y-75395104D01*
X143210019Y-75347485D01*
X143305257Y-75299866D01*
X143448114Y-75299866D01*
X143543352Y-75347485D01*
X143590971Y-75395104D01*
X143638590Y-75490342D01*
X143638590Y-75871295D01*
X144114780Y-74823676D02*
X144114780Y-74633200D01*
X144067161Y-74537961D01*
X144019542Y-74490342D01*
X143876685Y-74395104D01*
X143686209Y-74347485D01*
X143305257Y-74347485D01*
X143210019Y-74395104D01*
X143162400Y-74442723D01*
X143114780Y-74537961D01*
X143114780Y-74728438D01*
X143162400Y-74823676D01*
X143210019Y-74871295D01*
X143305257Y-74918914D01*
X143543352Y-74918914D01*
X143638590Y-74871295D01*
X143686209Y-74823676D01*
X143733828Y-74728438D01*
X143733828Y-74537961D01*
X143686209Y-74442723D01*
X143638590Y-74395104D01*
X143543352Y-74347485D01*
%TO.C,R8*%
X135316933Y-86877180D02*
X134983600Y-86400990D01*
X134745504Y-86877180D02*
X134745504Y-85877180D01*
X135126457Y-85877180D01*
X135221695Y-85924800D01*
X135269314Y-85972419D01*
X135316933Y-86067657D01*
X135316933Y-86210514D01*
X135269314Y-86305752D01*
X135221695Y-86353371D01*
X135126457Y-86400990D01*
X134745504Y-86400990D01*
X135888361Y-86305752D02*
X135793123Y-86258133D01*
X135745504Y-86210514D01*
X135697885Y-86115276D01*
X135697885Y-86067657D01*
X135745504Y-85972419D01*
X135793123Y-85924800D01*
X135888361Y-85877180D01*
X136078838Y-85877180D01*
X136174076Y-85924800D01*
X136221695Y-85972419D01*
X136269314Y-86067657D01*
X136269314Y-86115276D01*
X136221695Y-86210514D01*
X136174076Y-86258133D01*
X136078838Y-86305752D01*
X135888361Y-86305752D01*
X135793123Y-86353371D01*
X135745504Y-86400990D01*
X135697885Y-86496228D01*
X135697885Y-86686704D01*
X135745504Y-86781942D01*
X135793123Y-86829561D01*
X135888361Y-86877180D01*
X136078838Y-86877180D01*
X136174076Y-86829561D01*
X136221695Y-86781942D01*
X136269314Y-86686704D01*
X136269314Y-86496228D01*
X136221695Y-86400990D01*
X136174076Y-86353371D01*
X136078838Y-86305752D01*
%TO.C,R5*%
X135342333Y-74112380D02*
X135009000Y-73636190D01*
X134770904Y-74112380D02*
X134770904Y-73112380D01*
X135151857Y-73112380D01*
X135247095Y-73160000D01*
X135294714Y-73207619D01*
X135342333Y-73302857D01*
X135342333Y-73445714D01*
X135294714Y-73540952D01*
X135247095Y-73588571D01*
X135151857Y-73636190D01*
X134770904Y-73636190D01*
X136247095Y-73112380D02*
X135770904Y-73112380D01*
X135723285Y-73588571D01*
X135770904Y-73540952D01*
X135866142Y-73493333D01*
X136104238Y-73493333D01*
X136199476Y-73540952D01*
X136247095Y-73588571D01*
X136294714Y-73683809D01*
X136294714Y-73921904D01*
X136247095Y-74017142D01*
X136199476Y-74064761D01*
X136104238Y-74112380D01*
X135866142Y-74112380D01*
X135770904Y-74064761D01*
X135723285Y-74017142D01*
%TO.C,R2*%
X135342333Y-67000380D02*
X135009000Y-66524190D01*
X134770904Y-67000380D02*
X134770904Y-66000380D01*
X135151857Y-66000380D01*
X135247095Y-66048000D01*
X135294714Y-66095619D01*
X135342333Y-66190857D01*
X135342333Y-66333714D01*
X135294714Y-66428952D01*
X135247095Y-66476571D01*
X135151857Y-66524190D01*
X134770904Y-66524190D01*
X135723285Y-66095619D02*
X135770904Y-66048000D01*
X135866142Y-66000380D01*
X136104238Y-66000380D01*
X136199476Y-66048000D01*
X136247095Y-66095619D01*
X136294714Y-66190857D01*
X136294714Y-66286095D01*
X136247095Y-66428952D01*
X135675666Y-67000380D01*
X136294714Y-67000380D01*
%TO.C,SW1*%
X151913166Y-87145761D02*
X152056023Y-87193380D01*
X152294119Y-87193380D01*
X152389357Y-87145761D01*
X152436976Y-87098142D01*
X152484595Y-87002904D01*
X152484595Y-86907666D01*
X152436976Y-86812428D01*
X152389357Y-86764809D01*
X152294119Y-86717190D01*
X152103642Y-86669571D01*
X152008404Y-86621952D01*
X151960785Y-86574333D01*
X151913166Y-86479095D01*
X151913166Y-86383857D01*
X151960785Y-86288619D01*
X152008404Y-86241000D01*
X152103642Y-86193380D01*
X152341738Y-86193380D01*
X152484595Y-86241000D01*
X152817928Y-86193380D02*
X153056023Y-87193380D01*
X153246500Y-86479095D01*
X153436976Y-87193380D01*
X153675071Y-86193380D01*
X154579833Y-87193380D02*
X154008404Y-87193380D01*
X154294119Y-87193380D02*
X154294119Y-86193380D01*
X154198880Y-86336238D01*
X154103642Y-86431476D01*
X154008404Y-86479095D01*
%TO.C,R4*%
X135342333Y-63571380D02*
X135009000Y-63095190D01*
X134770904Y-63571380D02*
X134770904Y-62571380D01*
X135151857Y-62571380D01*
X135247095Y-62619000D01*
X135294714Y-62666619D01*
X135342333Y-62761857D01*
X135342333Y-62904714D01*
X135294714Y-62999952D01*
X135247095Y-63047571D01*
X135151857Y-63095190D01*
X134770904Y-63095190D01*
X136199476Y-62904714D02*
X136199476Y-63571380D01*
X135961380Y-62523761D02*
X135723285Y-63238047D01*
X136342333Y-63238047D01*
%TO.C,R6*%
X135342333Y-77668380D02*
X135009000Y-77192190D01*
X134770904Y-77668380D02*
X134770904Y-76668380D01*
X135151857Y-76668380D01*
X135247095Y-76716000D01*
X135294714Y-76763619D01*
X135342333Y-76858857D01*
X135342333Y-77001714D01*
X135294714Y-77096952D01*
X135247095Y-77144571D01*
X135151857Y-77192190D01*
X134770904Y-77192190D01*
X136199476Y-76668380D02*
X136009000Y-76668380D01*
X135913761Y-76716000D01*
X135866142Y-76763619D01*
X135770904Y-76906476D01*
X135723285Y-77096952D01*
X135723285Y-77477904D01*
X135770904Y-77573142D01*
X135818523Y-77620761D01*
X135913761Y-77668380D01*
X136104238Y-77668380D01*
X136199476Y-77620761D01*
X136247095Y-77573142D01*
X136294714Y-77477904D01*
X136294714Y-77239809D01*
X136247095Y-77144571D01*
X136199476Y-77096952D01*
X136104238Y-77049333D01*
X135913761Y-77049333D01*
X135818523Y-77096952D01*
X135770904Y-77144571D01*
X135723285Y-77239809D01*
D12*
%TO.C,J1*%
X122990428Y-63754000D02*
X124079000Y-63754000D01*
X124296714Y-63826571D01*
X124441857Y-63971714D01*
X124514428Y-64189428D01*
X124514428Y-64334571D01*
X124514428Y-62230000D02*
X124514428Y-63100857D01*
X124514428Y-62665428D02*
X122990428Y-62665428D01*
X123208142Y-62810571D01*
X123353285Y-62955714D01*
X123425857Y-63100857D01*
D13*
X115870324Y-71143827D02*
X115393772Y-71477414D01*
X115870324Y-71715690D02*
X114869564Y-71715690D01*
X114869564Y-71334448D01*
X114917220Y-71239138D01*
X114964875Y-71191482D01*
X115060185Y-71143827D01*
X115203151Y-71143827D01*
X115298461Y-71191482D01*
X115346117Y-71239138D01*
X115393772Y-71334448D01*
X115393772Y-71715690D01*
X114869564Y-70428999D02*
X115584393Y-70428999D01*
X115727359Y-70476654D01*
X115822669Y-70571964D01*
X115870324Y-70714930D01*
X115870324Y-70810240D01*
X115203151Y-69523549D02*
X115870324Y-69523549D01*
X114821909Y-69761825D02*
X115536738Y-70000101D01*
X115536738Y-69380583D01*
X114869564Y-68522789D02*
X114869564Y-68999341D01*
X115346117Y-69046997D01*
X115298461Y-68999341D01*
X115250806Y-68904031D01*
X115250806Y-68665755D01*
X115298461Y-68570444D01*
X115346117Y-68522789D01*
X115441427Y-68475134D01*
X115679703Y-68475134D01*
X115775014Y-68522789D01*
X115822669Y-68570444D01*
X115870324Y-68665755D01*
X115870324Y-68904031D01*
X115822669Y-68999341D01*
X115775014Y-69046997D01*
D11*
X122591580Y-72524619D02*
X122591580Y-71953190D01*
X123591580Y-72238904D02*
X122591580Y-72238904D01*
X123591580Y-71191285D02*
X123067771Y-71191285D01*
X122972533Y-71238904D01*
X122924914Y-71334142D01*
X122924914Y-71524619D01*
X122972533Y-71619857D01*
X123543961Y-71191285D02*
X123591580Y-71286523D01*
X123591580Y-71524619D01*
X123543961Y-71619857D01*
X123448723Y-71667476D01*
X123353485Y-71667476D01*
X123258247Y-71619857D01*
X123210628Y-71524619D01*
X123210628Y-71286523D01*
X123163009Y-71191285D01*
X123591580Y-70715095D02*
X122591580Y-70715095D01*
X122972533Y-70715095D02*
X122924914Y-70619857D01*
X122924914Y-70429380D01*
X122972533Y-70334142D01*
X123020152Y-70286523D01*
X123115390Y-70238904D01*
X123401104Y-70238904D01*
X123496342Y-70286523D01*
X123543961Y-70334142D01*
X123591580Y-70429380D01*
X123591580Y-70619857D01*
X123543961Y-70715095D01*
X122591580Y-69048428D02*
X123401104Y-69048428D01*
X123496342Y-69000809D01*
X123543961Y-68953190D01*
X123591580Y-68857952D01*
X123591580Y-68667476D01*
X123543961Y-68572238D01*
X123496342Y-68524619D01*
X123401104Y-68477000D01*
X122591580Y-68477000D01*
X122924914Y-68000809D02*
X123924914Y-68000809D01*
X122972533Y-68000809D02*
X122924914Y-67905571D01*
X122924914Y-67715095D01*
X122972533Y-67619857D01*
X123020152Y-67572238D01*
X123115390Y-67524619D01*
X123401104Y-67524619D01*
X123496342Y-67572238D01*
X123543961Y-67619857D01*
X123591580Y-67715095D01*
X123591580Y-67905571D01*
X123543961Y-68000809D01*
X122016780Y-73551609D02*
X121540590Y-73884942D01*
X122016780Y-74123038D02*
X121016780Y-74123038D01*
X121016780Y-73742085D01*
X121064400Y-73646847D01*
X121112019Y-73599228D01*
X121207257Y-73551609D01*
X121350114Y-73551609D01*
X121445352Y-73599228D01*
X121492971Y-73646847D01*
X121540590Y-73742085D01*
X121540590Y-74123038D01*
X121016780Y-72837323D02*
X121731066Y-72837323D01*
X121873923Y-72884942D01*
X121969161Y-72980180D01*
X122016780Y-73123038D01*
X122016780Y-73218276D01*
X121969161Y-72408752D02*
X122016780Y-72265895D01*
X122016780Y-72027800D01*
X121969161Y-71932561D01*
X121921542Y-71884942D01*
X121826304Y-71837323D01*
X121731066Y-71837323D01*
X121635828Y-71884942D01*
X121588209Y-71932561D01*
X121540590Y-72027800D01*
X121492971Y-72218276D01*
X121445352Y-72313514D01*
X121397733Y-72361133D01*
X121302495Y-72408752D01*
X121207257Y-72408752D01*
X121112019Y-72361133D01*
X121064400Y-72313514D01*
X121016780Y-72218276D01*
X121016780Y-71980180D01*
X121064400Y-71837323D01*
X121492971Y-71408752D02*
X121492971Y-71075419D01*
X122016780Y-70932561D02*
X122016780Y-71408752D01*
X121016780Y-71408752D01*
X121016780Y-70932561D01*
X121635828Y-70503990D02*
X121635828Y-69742085D01*
X121016780Y-68789704D02*
X121016780Y-69265895D01*
X121492971Y-69313514D01*
X121445352Y-69265895D01*
X121397733Y-69170657D01*
X121397733Y-68932561D01*
X121445352Y-68837323D01*
X121492971Y-68789704D01*
X121588209Y-68742085D01*
X121826304Y-68742085D01*
X121921542Y-68789704D01*
X121969161Y-68837323D01*
X122016780Y-68932561D01*
X122016780Y-69170657D01*
X121969161Y-69265895D01*
X121921542Y-69313514D01*
X121016780Y-68123038D02*
X121016780Y-68027800D01*
X121064400Y-67932561D01*
X121112019Y-67884942D01*
X121207257Y-67837323D01*
X121397733Y-67789704D01*
X121635828Y-67789704D01*
X121826304Y-67837323D01*
X121921542Y-67884942D01*
X121969161Y-67932561D01*
X122016780Y-68027800D01*
X122016780Y-68123038D01*
X121969161Y-68218276D01*
X121921542Y-68265895D01*
X121826304Y-68313514D01*
X121635828Y-68361133D01*
X121397733Y-68361133D01*
X121207257Y-68313514D01*
X121112019Y-68265895D01*
X121064400Y-68218276D01*
X121016780Y-68123038D01*
X121445352Y-67218276D02*
X121397733Y-67313514D01*
X121350114Y-67361133D01*
X121254876Y-67408752D01*
X121207257Y-67408752D01*
X121112019Y-67361133D01*
X121064400Y-67313514D01*
X121016780Y-67218276D01*
X121016780Y-67027800D01*
X121064400Y-66932561D01*
X121112019Y-66884942D01*
X121207257Y-66837323D01*
X121254876Y-66837323D01*
X121350114Y-66884942D01*
X121397733Y-66932561D01*
X121445352Y-67027800D01*
X121445352Y-67218276D01*
X121492971Y-67313514D01*
X121540590Y-67361133D01*
X121635828Y-67408752D01*
X121826304Y-67408752D01*
X121921542Y-67361133D01*
X121969161Y-67313514D01*
X122016780Y-67218276D01*
X122016780Y-67027800D01*
X121969161Y-66932561D01*
X121921542Y-66884942D01*
X121826304Y-66837323D01*
X121635828Y-66837323D01*
X121540590Y-66884942D01*
X121492971Y-66932561D01*
X121445352Y-67027800D01*
X121016780Y-66218276D02*
X121016780Y-66123038D01*
X121064400Y-66027800D01*
X121112019Y-65980180D01*
X121207257Y-65932561D01*
X121397733Y-65884942D01*
X121635828Y-65884942D01*
X121826304Y-65932561D01*
X121921542Y-65980180D01*
X121969161Y-66027800D01*
X122016780Y-66123038D01*
X122016780Y-66218276D01*
X121969161Y-66313514D01*
X121921542Y-66361133D01*
X121826304Y-66408752D01*
X121635828Y-66456371D01*
X121397733Y-66456371D01*
X121207257Y-66408752D01*
X121112019Y-66361133D01*
X121064400Y-66313514D01*
X121016780Y-66218276D01*
%TO.C,R3*%
X163266380Y-81319666D02*
X162790190Y-81653000D01*
X163266380Y-81891095D02*
X162266380Y-81891095D01*
X162266380Y-81510142D01*
X162314000Y-81414904D01*
X162361619Y-81367285D01*
X162456857Y-81319666D01*
X162599714Y-81319666D01*
X162694952Y-81367285D01*
X162742571Y-81414904D01*
X162790190Y-81510142D01*
X162790190Y-81891095D01*
X162266380Y-80986333D02*
X162266380Y-80367285D01*
X162647333Y-80700619D01*
X162647333Y-80557761D01*
X162694952Y-80462523D01*
X162742571Y-80414904D01*
X162837809Y-80367285D01*
X163075904Y-80367285D01*
X163171142Y-80414904D01*
X163218761Y-80462523D01*
X163266380Y-80557761D01*
X163266380Y-80843476D01*
X163218761Y-80938714D01*
X163171142Y-80986333D01*
%TO.C,R1*%
X135342333Y-70556380D02*
X135009000Y-70080190D01*
X134770904Y-70556380D02*
X134770904Y-69556380D01*
X135151857Y-69556380D01*
X135247095Y-69604000D01*
X135294714Y-69651619D01*
X135342333Y-69746857D01*
X135342333Y-69889714D01*
X135294714Y-69984952D01*
X135247095Y-70032571D01*
X135151857Y-70080190D01*
X134770904Y-70080190D01*
X136294714Y-70556380D02*
X135723285Y-70556380D01*
X136009000Y-70556380D02*
X136009000Y-69556380D01*
X135913761Y-69699238D01*
X135818523Y-69794476D01*
X135723285Y-69842095D01*
%TO.C,U1*%
X152900095Y-61095380D02*
X152900095Y-61904904D01*
X152947714Y-62000142D01*
X152995333Y-62047761D01*
X153090571Y-62095380D01*
X153281047Y-62095380D01*
X153376285Y-62047761D01*
X153423904Y-62000142D01*
X153471523Y-61904904D01*
X153471523Y-61095380D01*
X154471523Y-62095380D02*
X153900095Y-62095380D01*
X154185809Y-62095380D02*
X154185809Y-61095380D01*
X154090571Y-61238238D01*
X153995333Y-61333476D01*
X153900095Y-61381095D01*
X151376285Y-52428714D02*
X151376285Y-53428714D01*
X151852476Y-52952523D02*
X151900095Y-53047761D01*
X151995333Y-53095380D01*
X151376285Y-52952523D02*
X151423904Y-53047761D01*
X151519142Y-53095380D01*
X151709619Y-53095380D01*
X151804857Y-53047761D01*
X151852476Y-52952523D01*
X151852476Y-52428714D01*
X152423904Y-52095380D02*
X152423904Y-52904904D01*
X152471523Y-53000142D01*
X152519142Y-53047761D01*
X152614380Y-53095380D01*
X152804857Y-53095380D01*
X152900095Y-53047761D01*
X152947714Y-53000142D01*
X152995333Y-52904904D01*
X152995333Y-52095380D01*
X153423904Y-53047761D02*
X153566761Y-53095380D01*
X153804857Y-53095380D01*
X153900095Y-53047761D01*
X153947714Y-53000142D01*
X153995333Y-52904904D01*
X153995333Y-52809666D01*
X153947714Y-52714428D01*
X153900095Y-52666809D01*
X153804857Y-52619190D01*
X153614380Y-52571571D01*
X153519142Y-52523952D01*
X153471523Y-52476333D01*
X153423904Y-52381095D01*
X153423904Y-52285857D01*
X153471523Y-52190619D01*
X153519142Y-52143000D01*
X153614380Y-52095380D01*
X153852476Y-52095380D01*
X153995333Y-52143000D01*
X154757238Y-52571571D02*
X154900095Y-52619190D01*
X154947714Y-52666809D01*
X154995333Y-52762047D01*
X154995333Y-52904904D01*
X154947714Y-53000142D01*
X154900095Y-53047761D01*
X154804857Y-53095380D01*
X154423904Y-53095380D01*
X154423904Y-52095380D01*
X154757238Y-52095380D01*
X154852476Y-52143000D01*
X154900095Y-52190619D01*
X154947714Y-52285857D01*
X154947714Y-52381095D01*
X154900095Y-52476333D01*
X154852476Y-52523952D01*
X154757238Y-52571571D01*
X154423904Y-52571571D01*
%TO.C,R7*%
X152995333Y-80462380D02*
X152662000Y-79986190D01*
X152423904Y-80462380D02*
X152423904Y-79462380D01*
X152804857Y-79462380D01*
X152900095Y-79510000D01*
X152947714Y-79557619D01*
X152995333Y-79652857D01*
X152995333Y-79795714D01*
X152947714Y-79890952D01*
X152900095Y-79938571D01*
X152804857Y-79986190D01*
X152423904Y-79986190D01*
X153328666Y-79462380D02*
X153995333Y-79462380D01*
X153566761Y-80462380D01*
D14*
%TO.C,R9*%
X143560800Y-79325600D02*
X143560800Y-78555600D01*
X143560800Y-71245600D02*
X143560800Y-72015600D01*
X144930800Y-72015600D02*
X142190800Y-72015600D01*
X142190800Y-78555600D02*
X144930800Y-78555600D01*
X142190800Y-72015600D02*
X142190800Y-78555600D01*
X144930800Y-78555600D02*
X144930800Y-72015600D01*
%TO.C,R8*%
X139625200Y-86461600D02*
X138855200Y-86461600D01*
X131545200Y-86461600D02*
X132315200Y-86461600D01*
X132315200Y-85091600D02*
X132315200Y-87831600D01*
X138855200Y-87831600D02*
X138855200Y-85091600D01*
X132315200Y-87831600D02*
X138855200Y-87831600D01*
X138855200Y-85091600D02*
X132315200Y-85091600D01*
%TO.C,R5*%
X132239000Y-75030000D02*
X138779000Y-75030000D01*
X139549000Y-73660000D02*
X138779000Y-73660000D01*
X138779000Y-72290000D02*
X132239000Y-72290000D01*
X131469000Y-73660000D02*
X132239000Y-73660000D01*
X138779000Y-75030000D02*
X138779000Y-72290000D01*
X132239000Y-72290000D02*
X132239000Y-75030000D01*
%TO.C,R2*%
X139549000Y-66548000D02*
X138779000Y-66548000D01*
X131469000Y-66548000D02*
X132239000Y-66548000D01*
X132239000Y-67918000D02*
X138779000Y-67918000D01*
X138779000Y-67918000D02*
X138779000Y-65178000D01*
X138779000Y-65178000D02*
X132239000Y-65178000D01*
X132239000Y-65178000D02*
X132239000Y-67918000D01*
%TO.C,SW1*%
X153923167Y-85725000D02*
X153923167Y-84455000D01*
X155276500Y-84885000D02*
X153923167Y-84885000D01*
X148296500Y-87510000D02*
X148296500Y-82670000D01*
X155276500Y-85125000D02*
X153923167Y-85125000D01*
X158436500Y-87750000D02*
X157052500Y-87750000D01*
X155276500Y-85245000D02*
X153923167Y-85245000D01*
X155276500Y-84525000D02*
X153923167Y-84525000D01*
X155276500Y-85605000D02*
X153923167Y-85605000D01*
X158196500Y-87510000D02*
X158196500Y-82670000D01*
X155276500Y-85365000D02*
X153923167Y-85365000D01*
X151216500Y-84455000D02*
X151216500Y-85725000D01*
X155276500Y-85725000D02*
X155276500Y-84455000D01*
X158196500Y-87510000D02*
X148296500Y-87510000D01*
X151216500Y-85725000D02*
X155276500Y-85725000D01*
X155276500Y-84645000D02*
X153923167Y-84645000D01*
X158436500Y-87750000D02*
X158436500Y-86367000D01*
X155276500Y-85005000D02*
X153923167Y-85005000D01*
X155276500Y-85485000D02*
X153923167Y-85485000D01*
X155276500Y-84455000D02*
X151216500Y-84455000D01*
X155276500Y-84765000D02*
X153923167Y-84765000D01*
X158196500Y-82670000D02*
X148296500Y-82670000D01*
%TO.C,R4*%
X138779000Y-61749000D02*
X132239000Y-61749000D01*
X138779000Y-64489000D02*
X138779000Y-61749000D01*
X132239000Y-61749000D02*
X132239000Y-64489000D01*
X132239000Y-64489000D02*
X138779000Y-64489000D01*
X131469000Y-63119000D02*
X132239000Y-63119000D01*
X139549000Y-63119000D02*
X138779000Y-63119000D01*
%TO.C,R6*%
X138779000Y-75846000D02*
X132239000Y-75846000D01*
X131469000Y-77216000D02*
X132239000Y-77216000D01*
X138779000Y-78586000D02*
X138779000Y-75846000D01*
X139549000Y-77216000D02*
X138779000Y-77216000D01*
X132239000Y-78586000D02*
X138779000Y-78586000D01*
X132239000Y-75846000D02*
X132239000Y-78586000D01*
D11*
%TO.C,J1*%
X115316000Y-78054200D02*
X110236000Y-78054200D01*
X115316000Y-61899800D02*
X125222000Y-61899800D01*
X110236000Y-78054200D02*
X110236000Y-61899800D01*
X125222000Y-61899800D02*
X125222000Y-78054200D01*
X125222000Y-78054200D02*
X115316000Y-78054200D01*
X110236000Y-61899800D02*
X115316000Y-61899800D01*
D14*
%TO.C,R3*%
X162814000Y-85066000D02*
X162814000Y-84296000D01*
X164184000Y-84296000D02*
X164184000Y-77756000D01*
X164184000Y-77756000D02*
X161444000Y-77756000D01*
X161444000Y-77756000D02*
X161444000Y-84296000D01*
X162814000Y-76986000D02*
X162814000Y-77756000D01*
X161444000Y-84296000D02*
X164184000Y-84296000D01*
%TO.C,R1*%
X138779000Y-68734000D02*
X132239000Y-68734000D01*
X139549000Y-70104000D02*
X138779000Y-70104000D01*
X132239000Y-71474000D02*
X138779000Y-71474000D01*
X132239000Y-68734000D02*
X132239000Y-71474000D01*
X138779000Y-71474000D02*
X138779000Y-68734000D01*
X131469000Y-70104000D02*
X132239000Y-70104000D01*
%TO.C,U1*%
X149662000Y-51643000D02*
X156662000Y-51643000D01*
X156662000Y-51643000D02*
X156662000Y-54643000D01*
X156662000Y-54643000D02*
X149662000Y-54643000D01*
X149662000Y-54643000D02*
X149662000Y-51643000D01*
X145662000Y-51643000D02*
X160662000Y-51643000D01*
X160662000Y-51643000D02*
X160662000Y-77643000D01*
X160662000Y-77643000D02*
X145662000Y-77643000D01*
X145662000Y-77643000D02*
X145662000Y-51643000D01*
%TO.C,R7*%
X149122000Y-80010000D02*
X149892000Y-80010000D01*
X149892000Y-81380000D02*
X156432000Y-81380000D01*
X149892000Y-78640000D02*
X149892000Y-81380000D01*
X156432000Y-81380000D02*
X156432000Y-78640000D01*
X156432000Y-78640000D02*
X149892000Y-78640000D01*
X157202000Y-80010000D02*
X156432000Y-80010000D01*
%TD*%
M02*
